<svg xmlns="http://www.w3.org/2000/svg" width="16" height="16" viewBox="0 0 16 16"><path fill="gray" d="M8,0 C12.418278,0 16,3.581722 16,8 C16,12.418278 12.418278,16 8,16 C3.581722,16 0,12.418278 0,8 C0,3.581722 3.581722,0 8,0 Z M8,2 C4.6862915,2 2,4.6862915 2,8 C2,11.3137085 4.6862915,14 8,14 C11.3137085,14 14,11.3137085 14,8 C14,4.6862915 11.3137085,2 8,2 Z M8,4 C8.51283584,4 8.93550716,4.38604019 8.99327227,4.88337887 L9,5 L9,7 L12,7 C12.5128358,7 12.9355072,7.38604019 12.9932723,7.88337887 L13,8 C13,8.51283584 12.6139598,8.93550716 12.1166211,8.99327227 L12,9 L8,9 C7.48716416,9 7.06449284,8.61395981 7.00672773,8.11662113 L7,8 L7,5 C7,4.44771525 7.44771525,4 8,4 Z"/></svg>