<svg xmlns="http://www.w3.org/2000/svg" width="40" height="52" viewBox="0 0 40 52"><path d="M24.2304766,0 C25.6643359,0 27.0277109,0.542648438 28.0693359,1.52810937 L28.0693359,1.52810937 L37.8622969,10.7928437 C38.9725781,11.8432031 39.609375,13.3222578 39.609375,14.8506719 L39.609375,14.8506719 L39.609375,46.4140625 C39.609375,49.4941484 37.1035234,52 34.0234375,52 L34.0234375,52 L5.5859375,52 C2.50585156,52 0,49.4941484 0,46.4140625 L0,46.4140625 L0,5.5859375 C0,2.50585156 2.50585156,0 5.5859375,0 L5.5859375,0 Z M23.765625,3.046875 L5.5859375,3.046875 C4.18589844,3.046875 3.046875,4.18589844 3.046875,5.5859375 L3.046875,5.5859375 L3.046875,46.4140625 C3.046875,47.8141016 4.18589844,48.953125 5.5859375,48.953125 L5.5859375,48.953125 L34.0234375,48.953125 C35.4234766,48.953125 36.5625,47.8141016 36.5625,46.4140625 L36.5625,46.4140625 L36.5625,15.234375 L27.3203125,15.234375 C25.3602578,15.234375 23.765625,13.6397422 23.765625,11.6796875 L23.765625,11.6796875 L23.765625,3.046875 Z M15.71375,36.5625 C16.5550937,36.5625 17.2371875,37.2445937 17.2371875,38.0859375 C17.2371875,38.9272813 16.5550937,39.609375 15.71375,39.609375 L15.71375,39.609375 L8.328125,39.609375 C7.48678125,39.609375 6.8046875,38.9272813 6.8046875,38.0859375 C6.8046875,37.2445937 7.48678125,36.5625 8.328125,36.5625 L8.328125,36.5625 Z M30.671875,28.4375 C31.5132188,28.4375 32.1953125,29.1195937 32.1953125,29.9609375 C32.1953125,30.8022813 31.5132188,31.484375 30.671875,31.484375 L30.671875,31.484375 L8.328125,31.484375 C7.48678125,31.484375 6.8046875,30.8022813 6.8046875,29.9609375 C6.8046875,29.1195937 7.48678125,28.4375 8.328125,28.4375 L8.328125,28.4375 Z M30.671875,20.3125 C31.5132188,20.3125 32.1953125,20.9945937 32.1953125,21.8359375 C32.1953125,22.6772813 31.5132188,23.359375 30.671875,23.359375 L30.671875,23.359375 L8.328125,23.359375 C7.48678125,23.359375 6.8046875,22.6772813 6.8046875,21.8359375 C6.8046875,20.9945937 7.48678125,20.3125 8.328125,20.3125 L8.328125,20.3125 Z M26.8125,4.53334375 L26.8125,11.6796875 C26.8125,11.9596953 27.0403047,12.1875 27.3203125,12.1875 L27.3203125,12.1875 L34.9030703,12.1875 L26.8125,4.53334375 Z"/></svg>