<?xml version="1.0" standalone="no"?>
<!DOCTYPE svg PUBLIC "-//W3C//DTD SVG 20010904//EN"
 "http://www.w3.org/TR/2001/REC-SVG-20010904/DTD/svg10.dtd">
<svg version="1.0" xmlns="http://www.w3.org/2000/svg"
 width="1280.000000pt" height="1101.000000pt" viewBox="0 0 1280.000000 1101.000000"
 preserveAspectRatio="xMidYMid meet">
<metadata>
Created by potrace 1.15, written by Peter Selinger 2001-2017
</metadata>
<g transform="translate(0.000000,1101.000000) scale(0.100000,-0.100000)"
fill="#f44336" stroke="none">
<path d="M1870 10999 c-888 -91 -1599 -682 -1809 -1505 -60 -234 -55 -34 -59
-2734 -2 -1620 1 -2500 8 -2568 61 -618 422 -1171 979 -1500 247 -145 541
-242 856 -283 90 -11 3045 -30 3045 -19 0 3 -208 213 -463 468 l-462 462 -984
0 c-1066 0 -1086 1 -1279 56 -123 35 -311 131 -408 208 -185 146 -307 345
-353 573 -21 100 -21 119 -21 2535 0 2649 -3 2517 56 2694 128 387 474 648
934 704 70 8 731 10 2495 8 l2400 -3 80 -23 c432 -126 740 -471 810 -908 15
-89 15 -190 6 -979 -5 -483 -8 -881 -6 -883 2 -2 213 198 469 444 l465 449 1
415 c0 595 -14 747 -96 1009 -235 754 -908 1300 -1703 1381 -127 12 -4834 12
-4961 -1z"/>
<path d="M4845 7920 l-520 -520 120 -122 c66 -68 509 -513 985 -991 l865 -867
-973 -973 -972 -972 523 -523 522 -522 80 80 c44 44 85 78 91 76 6 -2 411 397
900 887 l889 892 -895 -890 -895 -890 890 892 889 892 23 -21 c12 -11 20 -25
16 -31 -3 -6 -1 -7 5 -3 6 4 404 -385 960 -938 l948 -945 522 522 522 522
-972 972 -973 973 905 903 905 902 -898 -900 -897 -900 42 -40 43 -40 -37 40
-38 40 895 895 c492 492 892 896 890 899 -3 2 31 43 75 91 l79 86 -522 522
-522 522 -985 -985 -985 -985 -985 985 c-542 542 -987 985 -990 985 -3 0 -239
-234 -525 -520z"/>
<path d="M9815 2928 l-350 -353 353 350 c327 325 356 355 349 355 -1 0 -160
-159 -352 -352z"/>
</g>
</svg>
