<svg height="512pt" viewBox="0 0 512 512" width="512pt" xmlns="http://www.w3.org/2000/svg"><path d="m429.0625 0h-346.125c-45.804688 0-82.9375 37.132812-82.9375 82.9375v346.125c0 45.804688 37.132812 82.9375 82.9375 82.9375h346.125c45.804688 0 82.9375-37.132812 82.9375-82.9375v-346.125c0-45.804688-37.132812-82.9375-82.9375-82.9375zm0 0" fill="#b2e59c"/><path d="m286.507812 0h-203.570312c-45.804688 0-82.9375 37.132812-82.9375 82.9375v346.125c0 45.804688 37.132812 82.9375 82.9375 82.9375h106.796875c-84.058594-100.804688-52.410156-287.089844 11.078125-359.761719 61.308594-70.171875 80.023438-126.339843 85.695312-152.238281zm0 0" fill="#9ad880"/><path d="m233.472656 382.277344c-10.515625 0-20.660156-4.023438-28.328125-11.285156l-107.894531-102.136719c-16.527344-15.644531-17.242188-41.726563-1.597656-58.253907 15.644531-16.527343 41.722656-17.246093 58.253906-1.597656l77.191406 73.070313 124.679688-138.691407c15.214844-16.925781 41.269531-18.308593 58.195312-3.097656 16.921875 15.214844 18.308594 41.269532 3.09375 58.195313l-152.949218 170.136719c-7.429688 8.261718-17.878907 13.175781-28.984376 13.625-.554687.023437-1.109374.035156-1.660156.035156zm0 0" fill="#fff"/><path d="m153.90625 209.003906c-16.53125-15.648437-42.609375-14.929687-58.253906 1.597656-15.644532 16.527344-14.929688 42.609376 1.597656 58.253907l43.746094 41.414062c3.574218-32.945312 11.363281-64.722656 22.167968-92.5zm0 0" fill="#ccf8ff"/></svg>