<svg xmlns="http://www.w3.org/2000/svg" width="16" height="16" viewBox="0 0 16 16"><path fill="#FFF" fill-rule="evenodd" d="M4.6264,2.3856 C4.0296,2.7008 3.4776,3.1056 2.9912,3.5912 C1.716,4.8664 1,6.5968 1,8.4 L1,9.2 C1,11.0032 1.716,12.7328 2.9912,14.008 C4.2664,15.2832 5.996,16 7.8,16 L8.6,16 C10.4032,16 12.1328,15.2832 13.408,14.008 C14.6832,12.7328 15.4,11.0032 15.4,9.2 L15.4,8.4 C15.4,6.5968 14.6832,4.8664 13.408,3.5912 C12.9216,3.1056 12.3696,2.7008 11.7728,2.3856 C11.3824,2.18 10.8984,2.3296 10.692,2.72 C10.4864,3.1104 10.636,3.5944 11.0264,3.8008 C11.4832,4.0416 11.9048,4.3512 12.2768,4.7232 C13.252,5.6984 13.8,7.0208 13.8,8.4 L13.8,9.2 C13.8,10.5792 13.252,11.9016 12.2768,12.8768 C11.3016,13.852 9.9784,14.4 8.6,14.4 L7.8,14.4 C6.4208,14.4 5.0976,13.852 4.1224,12.8768 C3.1472,11.9016 2.6,10.5792 2.6,9.2 L2.6,8.4 C2.6,7.0208 3.1472,5.6984 4.1224,4.7232 C4.4944,4.3512 4.9168,4.0416 5.3728,3.8008 C5.7632,3.5944 5.9136,3.1104 5.7072,2.72 C5.5008,2.3296 5.0168,2.18 4.6264,2.3856 L4.6264,2.3856 Z M7.4,0.8 L7.4,7.2 C7.4,7.6416 7.7584,8 8.2,8 C8.6416,8 9,7.6416 9,7.2 L9,0.8 C9,0.3584 8.6408,0 8.2,0 C7.7584,0 7.4,0.3584 7.4,0.8 Z"/></svg>