<svg xmlns="http://www.w3.org/2000/svg" width="76" height="100" viewBox="0 0 76 100"><path fill="gray" d="M254.30479,541.128782 L254.414214,541.230447 L289.769553,576.585786 C290.550601,577.366835 290.550601,578.633165 289.769553,579.414214 C289.024006,580.15976 287.836292,580.193648 287.050549,579.515879 L286.941125,579.414214 L255.499661,547.972661 L255.5,638 C255.5,639.104569 254.604569,640 253.5,640 C252.445638,640 251.581835,639.184122 251.505486,638.149262 L251.5,638 L251.5,547 L251.500661,546.971661 L219.058875,579.414214 C218.313328,580.15976 217.125614,580.193648 216.339871,579.515879 L216.230447,579.414214 C215.484901,578.668667 215.451013,577.480953 216.128782,576.69521 L216.230447,576.585786 L251.585786,541.230447 C252.331333,540.484901 253.519047,540.451013 254.30479,541.128782 Z" transform="translate(-215 -540)"/></svg>