<svg xmlns="http://www.w3.org/2000/svg" width="36" height="49" viewBox="0 0 36 49"><path d="M23,0 C23.7796961,0 24.4204487,0.594888083 24.4931334,1.35553999 L24.5,1.5 L24.5,10.5 L26,10.5 C27.1045695,10.5 28,11.3954305 28,12.5 L28.0000752,17.9343382 C30.355023,18.3076681 32.8755511,19.2480608 35.5616596,20.7555166 L35.5616596,29.6055338 C35.5616596,33.437945 33.0411615,36.7662566 28.0001653,39.5904685 L28,46.5 C28,47.6045695 27.1045695,48.5 26,48.5 L2,48.5 C0.8954305,48.5 0,47.6045695 0,46.5 L0,12.5 C0,11.3954305 0.8954305,10.5 2,10.5 L3.5,10.5 L3.5,1.5 C3.5,0.720303883 4.09488808,0.0795513218 4.85553999,0.00686657806 L5,0 L23,0 Z M25,42.5 L3,42.5 L3,45.5 L25,45.5 L25,42.5 Z M18.3851076,19.4992949 L3,19.5 L3,39.5 L23.2974969,39.5007741 C18.3624687,36.6958635 15.8949546,33.3974501 15.8949546,29.6055338 L15.8949546,20.7555166 C16.7414497,20.2804599 17.5715007,19.8617193 18.3851076,19.4992949 Z M25.7283071,20.75 C23.7458447,20.75 21.5175764,21.3208903 19.0464921,22.4973168 L18.894,22.571 L18.8949546,29.6055338 C18.8949546,32.2527616 20.8557351,34.7737602 25.2155417,37.1371313 L25.728,37.408 L25.8823088,37.3284099 C30.3809916,34.9689253 32.459259,32.4503371 32.5579617,29.8042305 L32.5616596,29.6055338 L32.561,22.571 L32.4101221,22.4973168 C30.0763202,21.3862474 27.9591043,20.8153012 26.060993,20.755292 L25.7283071,20.75 Z M30.0606602,25.4393398 C30.609835,25.9885146 30.6441584,26.857577 30.1636304,27.4467378 L30.0606602,27.5606602 L26.0606602,31.5606602 C25.5114854,32.109835 24.642423,32.1441584 24.0532622,31.6636304 L23.9393398,31.5606602 L21.9393398,29.5606602 C21.3535534,28.9748737 21.3535534,28.0251263 21.9393398,27.4393398 C22.4885146,26.890165 23.357577,26.8558416 23.9467378,27.3363696 L24.0606602,27.4393398 L25,28.379 L27.9393398,25.4393398 C28.5251263,24.8535534 29.4748737,24.8535534 30.0606602,25.4393398 Z M25,13.5 L3,13.5 L3,16.5 L25,16.5 L25,13.5 Z M21.5,3 L6.5,3 L6.5,10.5 L21.5,10.5 L21.5,3 Z M12,4.5 C12.5522847,4.5 13,4.94771525 13,5.5 L13,7.5 C13,8.05228475 12.5522847,8.5 12,8.5 C11.4477153,8.5 11,8.05228475 11,7.5 L11,5.5 C11,4.94771525 11.4477153,4.5 12,4.5 Z M16,4.5 C16.5522847,4.5 17,4.94771525 17,5.5 L17,7.5 C17,8.05228475 16.5522847,8.5 16,8.5 C15.4477153,8.5 15,8.05228475 15,7.5 L15,5.5 C15,4.94771525 15.4477153,4.5 16,4.5 Z" transform="translate(0 .5)"/></svg>