<svg xmlns="http://www.w3.org/2000/svg" width="28" height="49" viewBox="0 0 28 49"><path d="M23,0 C23.7796961,0 24.4204487,0.594888083 24.4931334,1.35553999 L24.5,1.5 L24.5,10.5 L26,10.5 C27.1045695,10.5 28,11.3954305 28,12.5 L28,46.5 C28,47.6045695 27.1045695,48.5 26,48.5 L2,48.5 C0.8954305,48.5 0,47.6045695 0,46.5 L0,12.5 C0,11.3954305 0.8954305,10.5 2,10.5 L3.5,10.5 L3.5,1.5 C3.5,0.720303883 4.09488808,0.0795513218 4.85553999,0.00686657806 L5,0 L23,0 Z M25,42.5 L3,42.5 L3,45.5 L25,45.5 L25,42.5 Z M25,19.5 L3,19.5 L3,39.5 L25,39.5 L25,19.5 Z M25,13.5 L3,13.5 L3,16.5 L25,16.5 L25,13.5 Z M21.5,3 L6.5,3 L6.5,10.5 L21.5,10.5 L21.5,3 Z M12,4.5 C12.5522847,4.5 13,4.94771525 13,5.5 L13,7.5 C13,8.05228475 12.5522847,8.5 12,8.5 C11.4477153,8.5 11,8.05228475 11,7.5 L11,5.5 C11,4.94771525 11.4477153,4.5 12,4.5 Z M16,4.5 C16.5522847,4.5 17,4.94771525 17,5.5 L17,7.5 C17,8.05228475 16.5522847,8.5 16,8.5 C15.4477153,8.5 15,8.05228475 15,7.5 L15,5.5 C15,4.94771525 15.4477153,4.5 16,4.5 Z" transform="translate(0 .5)"/></svg>