<?xml version="1.0" standalone="no"?>
<!DOCTYPE svg PUBLIC "-//W3C//DTD SVG 1.1//EN" "http://www.w3.org/Graphics/SVG/1.1/DTD/svg11.dtd">
<svg xmlns="http://www.w3.org/2000/svg">
<defs >
<font id="Overpass" horiz-adv-x="1148" ><font-face
    font-family="Overpass"
    units-per-em="2000"
    panose-1="0 0 0 0 0 0 0 0 0 0"
    ascent="1766"
    descent="-766"
    alphabetic="0" />
<glyph unicode=" " horiz-adv-x="456" />
<glyph unicode="!" horiz-adv-x="540" d="M314 386L364 986L442 1424H608L530 986L366 386H314ZM268 -28Q217 -28 188 7T158 88Q158 150 204 197T310 244Q363 244 393 210T424 130Q424 69 378 21T268 -28Z" />
<glyph unicode="&quot;" horiz-adv-x="776" d="M648 854L710 1400H912L778 854H648ZM296 854L358 1400H558L424 854H296Z" />
<glyph unicode="#" horiz-adv-x="1330" d="M276 0L404 394H174L228 544H450L564 882H344L390 1030H608L744 1400H882L760 1030H1020L1142 1400H1294L1174 1030H1404L1356 882H1130L1018 544H1238L1190 394H970L844 0H690L818 394H556L428 0H276ZM602 544H864L976
882H714L602 544Z" />
<glyph unicode="$" d="M456 -194L486 -16Q395 1 330 45T225 152T174 284L334 342Q358 251 426 195T606 138Q698 138 766 169T872 259T910 402Q910 476 873 525T776 611T650 680Q576 717 506 760T391 870T346 1040Q346 1131 393 1212T528 1350T738 1420L766 1576H930L902
1414Q979 1400 1033 1365T1119 1282T1158 1178L998 1124Q982 1181 928 1222T778 1264Q660 1264 591 1210T522 1066Q522 1009 553 970T637 899T752 838Q811 810 870 777T978 698T1056 588T1086 434Q1086 307 1032 211T881 55T654 -20L624 -194H456Z" />
<glyph unicode="%" horiz-adv-x="1692" d="M298 -24L1472 1424H1642L468 -24H298ZM568 706Q475 706 419 749T337 859T312 994Q312 1062 334 1137T403 1277T519 1383T686 1424Q779 1424 835 1381T917 1271T942 1136Q942 1063 919 988T850 848T734 745T568 706ZM588
846Q653 846 699 885T769 988T794 1122Q794 1169 780 1205T737 1263T664 1284Q614 1284 576 1261T512 1199T473 1109T460 1006Q460 962 473 926T515 868T588 846ZM1268 -24Q1174 -24 1118 19T1036 128T1010 262Q1010 330 1032 405T1101 545T1218 651T1386 692Q1478
692 1534 649T1615 540T1640 404Q1640 332 1618 257T1549 118T1433 15T1268 -24ZM1288 114Q1352 114 1397 154T1467 257T1492 392Q1492 438 1478 474T1436 532T1364 554Q1313 554 1275 531T1212 468T1173 379T1160 276Q1160 232 1173 195T1215 136T1288 114Z" />
<glyph unicode="&amp;" horiz-adv-x="1292" d="M480 -24Q329 -24 243 64T156 292Q156 415 206 504T345 661T550 790Q499 876 474 944T448 1076Q448 1184 501 1262T639 1382T822 1424Q947 1424 1020 1351T1094 1164Q1094 1076 1054 1006T942 876T772 760L970 442Q1008
502 1031 559T1064 654H1220Q1202 578 1165 488T1058 306L1248 0H1044L936 170Q834 74 716 25T480 -24ZM534 134Q611 134 698 176T860 294L620 676Q472 592 397 516T322 334Q322 244 379 189T534 134ZM704 870Q815 932 874 996T934 1140Q934 1206 895 1244T796
1282Q714 1282 659 1231T604 1102Q604 1057 631 1000T704 870Z" />
<glyph unicode="&apos;" horiz-adv-x="424" d="M296 854L358 1400H558L424 854H296Z" />
<glyph unicode="(" horiz-adv-x="676" d="M348 -260Q317 -203 290 -117T247 75T230 302Q230 513 268 685T370 996T511 1240T664 1424H826Q794 1391 741 1325T629 1160T516 935T428 655T394 324Q394 182 415 62T462 -142T506 -260H348Z" />
<glyph unicode=")" horiz-adv-x="676" d="M72 -260Q101 -226 150 -162T256 -4T364 214T447 487T480 816Q480 960 458 1086T407 1301T358 1424H516Q551 1366 580 1276T628 1075T646 840Q646 632 610 464T514 163T381 -75T232 -260H72Z" />
<glyph unicode="*" horiz-adv-x="1042" d="M444 590L330 692L490 872L612 966L486 974L294 1046L366 1198L552 1130L658 1046L652 1196L692 1422H852L812 1194L750 1046L884 1134L1090 1198L1118 1044L902 974L764 966L854 872L954 686L812 590L710 780L680 922L606
780L444 590Z" />
<glyph unicode="+" horiz-adv-x="1260" d="M658 216V602H282V768H658V1156H830V768H1210V602H830V216H658Z" />
<glyph unicode="," horiz-adv-x="450" d="M130 -282L82 -254Q102 -238 131 -206T186 -130T224 -32Q173 -29 143 2T112 80Q112 152 158 196T262 240Q313 240 348 206T384 104Q384 23 349 -50T257 -182T130 -282Z" />
<glyph unicode="-" horiz-adv-x="786" d="M260 512L290 678H736L708 512H260Z" />
<glyph unicode="." horiz-adv-x="448" d="M222 -28Q171 -28 142 7T112 88Q112 150 158 197T264 244Q317 244 347 210T378 130Q378 69 332 21T222 -28Z" />
<glyph unicode="/" horiz-adv-x="958" d="M-50 -260L1004 1424H1166L114 -260H-50Z" />
<glyph unicode="0" horiz-adv-x="1202" d="M616 -26Q510 -26 436 17T318 134T253 299T232 486Q232 588 245 696T288 909T365 1108T479 1272T633 1385T832 1426Q942 1426 1016 1381T1134 1261T1197 1096T1216 916Q1216 797 1197 667T1134 414T1022 192T852 33T616
-26ZM632 134Q735 134 807 193T925 347T998 547T1035 747T1046 900Q1046 989 1026 1073T956 1211T816 1266Q713 1266 641 1206T522 1051T449 850T413 650T402 500Q402 411 422 327T492 189T632 134Z" />
<glyph unicode="1" horiz-adv-x="672" d="M292 0L490 1118H268L288 1232Q354 1232 411 1247T515 1299T592 1400H710L464 0H292Z" />
<glyph unicode="2" horiz-adv-x="1152" d="M130 0Q150 140 202 243T327 422T485 557T658 668Q738 716 805 760T923 850T1002 949T1030 1066Q1030 1152 971 1210T798 1268Q684 1268 606 1213T484 1056L346 1126Q402 1254 524 1339T810 1424Q931 1424 1019 1378T1156
1252T1204 1076Q1204 976 1166 898T1060 756T905 636T718 520Q633 470 560 416T435 301T360 166H1052L1022 0H130Z" />
<glyph unicode="3" horiz-adv-x="1132" d="M604 -24Q433 -24 310 66T152 306L308 362Q341 248 415 191T604 134Q695 134 764 171T871 275T910 430Q910 535 847 592T670 650H562L590 808H682Q768 808 834 842T937 935T974 1072Q974 1161 916 1214T762 1268Q662
1268 590 1219T476 1074L326 1130Q383 1268 502 1346T772 1424Q884 1424 968 1383T1099 1268T1146 1096Q1146 973 1083 879T900 730Q955 708 996 663T1061 558T1084 430Q1084 297 1023 195T853 34T604 -24Z" />
<glyph unicode="4" horiz-adv-x="1152" d="M714 0L776 354H112L132 460L992 1400H1132L976 510H1166L1138 354H948L886 0H714ZM372 510H804L908 1102L372 510Z" />
<glyph unicode="5" horiz-adv-x="1188" d="M598 -24Q485 -24 395 11T244 100T154 208L286 302Q317 261 361 223T467 159T618 134Q722 134 804 176T934 295T982 478Q982 591 921 672T722 754Q625 754 551 715T432 622L294 680L510 1400H1214L1186 1240H624L490
820Q535 856 604 883T764 910Q880 910 968 860T1106 717T1156 496Q1156 381 1118 286T1008 122T832 14T598 -24Z" />
<glyph unicode="6" horiz-adv-x="1132" d="M588 -24Q451 -24 359 34T221 190T174 404Q174 538 217 672T341 930T534 1154T783 1327T1078 1428L1052 1272Q913 1236 792 1162T577 985T430 760Q480 808 558 841T730 874Q840 874 923 825T1053 691T1100 498Q1100 342
1033 225T849 42T588 -24ZM596 134Q692 134 768 177T888 295T932 470Q932 581 865 648T686 716Q592 716 516 673T395 554T350 378Q350 272 414 203T596 134Z" />
<glyph unicode="7" horiz-adv-x="972" d="M312 0Q351 219 422 428T613 841T916 1246H286L312 1400H1146L1124 1272Q965 1115 853 945T668 606T551 282T488 0H312Z" />
<glyph unicode="8" horiz-adv-x="1156" d="M612 -24Q478 -24 384 27T240 165T190 362Q190 464 228 551T340 700T520 790Q491 804 456 835T396 916T370 1034Q370 1137 422 1226T570 1369T802 1424Q913 1424 994 1380T1121 1261T1166 1092Q1166 1012 1135 946T1049
833T922 762Q982 738 1026 693T1094 586T1118 456Q1118 355 1082 268T980 115T820 13T612 -24ZM624 132Q711 132 783 170T898 279T942 452Q942 517 914 572T828 660T686 694Q594 694 521 653T406 540T364 374Q364 265 433 199T624 132ZM744 838Q814 838 871 867T963
951T998 1078Q998 1162 943 1216T792 1270Q722 1270 665 1240T574 1155T540 1030Q540 955 592 897T744 838Z" />
<glyph unicode="9" horiz-adv-x="1132" d="M318 -24L344 134Q443 157 536 205T710 321T850 474T942 652Q893 597 810 564T628 530Q526 530 443 575T310 703T260 902Q260 1055 332 1172T524 1357T792 1424Q923 1424 1011 1368T1143 1214T1188 990Q1188 857 1149
724T1036 468T856 244T614 73T318 -24ZM668 680Q768 680 846 725T969 848T1014 1022Q1014 1127 954 1196T776 1266Q681 1266 603 1220T479 1096T432 922Q432 817 495 749T668 680Z" />
<glyph unicode=":" horiz-adv-x="448" d="M348 696Q299 696 269 731T238 812Q238 874 285 921T392 968Q443 968 473 934T504 852Q504 791 459 744T348 696ZM222 -28Q171 -28 142 7T112 88Q112 150 158 197T264 244Q317 244 347 210T378 130Q378 69 332 21T222 -28Z" />
<glyph unicode=";" horiz-adv-x="448" d="M128 -282L80 -254Q100 -238 127 -206T178 -129T214 -32Q169 -27 140 3T110 80Q110 152 156 196T260 240Q311 240 346 206T382 104Q382 23 347 -50T255 -182T128 -282ZM348 696Q299 696 269 731T238 812Q238 874 285 921T392
968Q443 968 473 934T504 852Q504 791 459 744T348 696Z" />
<glyph unicode="&lt;" horiz-adv-x="1260" d="M1220 230L292 608V760L1220 1142V974L498 686L1220 398V230Z" />
<glyph unicode="=" horiz-adv-x="1260" d="M282 778V942H1210V778H282ZM282 428V592H1210V428H282Z" />
<glyph unicode="&gt;" horiz-adv-x="1260" d="M276 230V396L998 686L276 974V1142L1204 760V608L276 230Z" />
<glyph unicode="?" horiz-adv-x="1006" d="M468 380L474 412Q493 513 536 583T634 704T744 796Q795 835 839 874T909 962T936 1082Q936 1156 885 1210T730 1264Q643 1264 575 1229T461 1128T398 966H234Q259 1106 334 1209T519 1368T758 1424Q872 1424 949 1381T1066
1266T1106 1106Q1106 1000 1073 930T986 810T868 712Q816 673 769 632T688 539T640 412L634 380H468ZM480 -28Q429 -28 399 7T368 88Q368 150 414 197T522 244Q573 244 603 210T634 130Q634 69 588 21T480 -28Z" />
<glyph unicode="@" horiz-adv-x="1560" d="M786 -24Q613 -24 483 45T281 243T208 548Q208 735 277 894T467 1173T740 1359T1062 1426Q1232 1426 1355 1361T1545 1183T1612 924Q1612 798 1576 689T1478 496T1338 367T1176 320Q1103 320 1063 358T1022 460Q971 390
902 348T764 306Q661 306 599 383T536 582Q536 677 569 763T661 917T798 1023T966 1062Q1046 1062 1093 1018T1144 896L1192 1036H1332L1182 598Q1178 587 1173 571T1164 538T1160 508Q1160 481 1175 464T1220 446Q1269 446 1314 484T1396 589T1454 739T1476 910Q1476
1026 1423 1109T1273 1237T1048 1282Q894 1282 767 1227T549 1073T408 846T358 570Q358 444 409 342T560 179T810 118Q879 118 954 128T1090 154L1028 4Q979 -9 917 -16T786 -24ZM816 446Q888 446 947 492T1041 612T1076 766Q1076 838 1045 880T954 922Q878 922
819 876T726 755T692 600Q692 531 725 489T816 446Z" />
<glyph unicode="A" horiz-adv-x="1296" d="M92 0L816 1400H966L1202 0H1030L974 344H450L274 0H92ZM528 498H950L866 1016Q863 1032 859 1056T852 1103T848 1138Q843 1126 833 1104T812 1058T792 1018L528 498Z" />
<glyph unicode="B" horiz-adv-x="1252" d="M182 0L428 1400H906Q1042 1400 1122 1354T1237 1236T1272 1086Q1272 978 1229 904T1122 787T1000 728Q1101 703 1157 620T1214 428Q1214 350 1189 274T1105 136T950 37T710 0H182ZM382 158H720Q848 158 917 202T1013
310T1040 432Q1040 491 1017 540T935 620T772 650H470L382 158ZM496 804H770Q881 804 955 837T1065 927T1102 1058Q1102 1105 1085 1147T1021 1215T890 1242H574L496 804Z" />
<glyph unicode="C" horiz-adv-x="1232" d="M708 -24Q584 -24 494 25T346 157T260 344T232 558Q232 724 279 879T415 1157T634 1352T926 1424Q1038 1424 1117 1386T1247 1291T1322 1176L1176 1102Q1137 1171 1076 1217T910 1264Q787 1264 693 1202T536 1038T441
815T408 574Q408 466 440 366T540 202T720 138Q795 138 853 161T957 225T1040 316L1184 248Q1136 172 1069 111T913 13T708 -24Z" />
<glyph unicode="D" horiz-adv-x="1320" d="M182 0L428 1400H802Q946 1400 1046 1348T1209 1210T1299 1017T1328 802Q1328 698 1305 587T1229 371T1089 183T875 50T574 0H182ZM382 158H596Q752 158 858 218T1029 375T1121 584T1150 800Q1150 911 1114 1012T1001
1178T798 1242H572L382 158Z" />
<glyph unicode="E" d="M182 0L428 1400H1234L1208 1242H574L498 804H910L880 646H470L384 158H1060L1032 0H182Z" />
<glyph unicode="F" horiz-adv-x="1082" d="M182 0L428 1400H1246L1220 1242H574L498 806H924L894 644H470L356 0H182Z" />
<glyph unicode="G" horiz-adv-x="1309" d="M709 -24Q583 -24 493 23T344 151T259 334T231 546Q231 711 274 867T405 1150T621 1350T923 1424Q1042 1424 1122 1385T1252 1289T1325 1178L1173 1096Q1139 1165 1075 1214T897 1264Q800 1264 722 1223T584 1112T484
951T424 760T403 560Q403 449 435 353T536 196T717 136Q855 136 948 223T1067 454L1079 522H835L863 674H1289L1261 520Q1235 376 1183 273T1059 104T898 7T709 -24Z" />
<glyph unicode="H" horiz-adv-x="1340" d="M182 0L428 1400H602L498 808H1128L1232 1400H1406L1160 0H986L1100 644H470L358 0H182Z" />
<glyph unicode="I" horiz-adv-x="536" d="M182 0L428 1400H602L356 0H182Z" />
<glyph unicode="J" horiz-adv-x="1038" d="M470 -24Q329 -24 234 49T104 234L252 298Q278 231 327 184T468 136Q542 136 600 166T698 265T758 450L926 1400H1100L928 428Q902 279 851 189T734 53T600 -8T470 -24Z" />
<glyph unicode="K" horiz-adv-x="1264" d="M182 0L428 1400H602L484 728L1118 1400H1324L850 900L1168 0H986L722 764L438 464L356 0H182Z" />
<glyph unicode="L" horiz-adv-x="1072" d="M182 0L428 1400H602L386 164H1044L1014 0H182Z" />
<glyph unicode="M" horiz-adv-x="1540" d="M754 -24L542 900Q538 917 534 938T526 982Q523 963 519 939T512 898L356 0H182L428 1400H596L800 482Q806 457 811 430T820 376Q831 399 846 426T874 472L1438 1400H1606L1360 0H1186L1346 902Q1349 919 1355 948T1364
990Q1355 971 1341 947T1318 908L754 -24Z" />
<glyph unicode="N" horiz-adv-x="1354" d="M182 0L428 1400H590L1022 390Q1030 374 1041 346T1056 302Q1059 317 1063 342T1070 388L1248 1400H1420L1174 0H1008L598 952Q592 966 581 994T559 1048T544 1086Q543 1075 539 1048T530 993T522 950L354 0H182Z" />
<glyph unicode="O" horiz-adv-x="1380" d="M712 -24Q582 -24 490 23T341 150T257 332T230 546Q230 668 257 793T338 1031T475 1232T668 1372T918 1424Q1046 1424 1137 1376T1285 1247T1369 1065T1396 858Q1396 734 1369 609T1287 370T1150 168T959 28T712 -24ZM712
136Q815 136 897 178T1040 293T1142 459T1203 654T1224 858Q1224 958 1193 1051T1094 1204T914 1264Q810 1264 728 1222T585 1106T483 940T422 746T402 546Q402 440 433 347T532 195T712 136Z" />
<glyph unicode="P" horiz-adv-x="1202" d="M182 0L428 1400H938Q1042 1400 1113 1369T1229 1286T1294 1172T1314 1046Q1314 958 1286 873T1197 719T1042 608T816 566H456L356 0H182ZM482 718H836Q948 718 1015 767T1113 889T1144 1032Q1144 1079 1126 1129T1060
1213T928 1248H574L482 718Z" />
<glyph unicode="Q" horiz-adv-x="1380" d="M1024 -140L946 26Q894 2 836 -11T712 -24Q582 -24 490 23T341 150T257 332T230 546Q230 668 257 793T338 1031T475 1232T668 1372T918 1424Q1046 1424 1137 1376T1285 1247T1369 1065T1396 858Q1396 718 1361 576T1255
311T1080 104L1162 -70L1024 -140ZM712 136Q757 136 798 146T876 174L802 330L942 400L1008 258Q1080 328 1128 427T1200 637T1224 858Q1224 958 1193 1051T1094 1204T914 1264Q810 1264 728 1222T585 1106T483 940T422 746T402 546Q402 440 433 347T532 195T712
136Z" />
<glyph unicode="R" horiz-adv-x="1272" d="M182 0L428 1400H912Q1028 1400 1105 1367T1229 1280T1296 1161T1316 1034Q1316 965 1295 897T1227 769T1107 669T930 612L1132 0H950L754 604H462L356 0H182ZM490 762H838Q959 762 1026 804T1119 907T1146 1028Q1146
1080 1123 1129T1047 1210T901 1242H574L490 762Z" />
<glyph unicode="S" horiz-adv-x="1146" d="M596 -24Q482 -24 396 17T253 128T172 286L330 346Q366 246 436 191T614 136Q705 136 772 166T875 255T912 400Q912 473 875 522T779 608T652 678Q594 707 538 738T435 812T362 912T334 1050Q334 1157 388 1241T542 1375T776
1424Q884 1424 961 1390T1087 1300T1154 1182L1000 1122Q975 1182 920 1225T764 1268Q644 1268 576 1210T508 1062Q508 1004 541 964T627 893T744 832Q805 803 866 769T978 689T1059 576T1090 414Q1090 273 1026 176T850 27T596 -24Z" />
<glyph unicode="T" horiz-adv-x="1116" d="M472 0L690 1240H322L348 1400H1260L1234 1240H864L646 0H472Z" />
<glyph unicode="U" horiz-adv-x="1318" d="M684 -24Q513 -24 411 48T274 250T270 558L418 1400H592L440 538Q419 416 435 326T514 186T692 136Q777 136 852 169T984 286T1068 524L1222 1400H1394L1240 518Q1214 368 1166 265T1047 97T886 5T684 -24Z" />
<glyph unicode="V" horiz-adv-x="1248" d="M556 0L338 1400H516L662 386Q665 369 667 347T670 306T672 278Q678 295 689 322T712 374L1214 1400H1404L700 0H556Z" />
<glyph unicode="W" horiz-adv-x="1596" d="M346 0L336 1400H506V452Q506 433 506 405T506 354Q515 377 525 401T546 450L964 1400H1102L1188 440Q1190 424 1192 396T1194 350Q1200 368 1208 393T1224 436L1572 1400H1756L1236 0H1080L985 958Q984 972 983 985T980
1014T978 1048Q974 1035 965 1013T946 970L500 0H346Z" />
<glyph unicode="X" horiz-adv-x="1138" d="M78 0L608 740L354 1400H532L718 892L1076 1400H1274L784 720L1060 0H884L674 566L276 0H78Z" />
<glyph unicode="Y" horiz-adv-x="1216" d="M520 0L620 562L318 1400H496L726 718L1204 1400H1390L786 550L690 0H520Z" />
<glyph unicode="Z" horiz-adv-x="1224" d="M122 0L144 126L1096 1244H384L410 1400H1344L1322 1272L376 158H1126L1098 0H122Z" />
<glyph unicode="[" horiz-adv-x="740" d="M170 -260L468 1424H890L862 1268H604L362 -104H620L592 -260H170Z" />
<glyph unicode="\" horiz-adv-x="958" d="M706 -260L250 1424H410L866 -260H706Z" />
<glyph unicode="]" horiz-adv-x="740" d="M56 -260L84 -104H342L582 1268H324L354 1424H776L478 -260H56Z" />
<glyph unicode="^" horiz-adv-x="1260" d="M304 714L770 1424H926L1210 714H1042L824 1210L472 714H304Z" />
<glyph unicode="_" horiz-adv-x="980" d="M-82 -356L-54 -188H986L958 -356H-82Z" />
<glyph unicode="`" horiz-adv-x="718" d="M590 1152L300 1464H534L752 1152H590Z" />
<glyph unicode="a" horiz-adv-x="1032" d="M452 -24Q316 -24 234 56T152 272Q152 388 205 475T355 610T580 658Q649 658 713 640T828 586L846 684Q866 786 825 842T690 898Q620 898 532 869T366 790L344 932Q436 988 529 1017T708 1046Q817 1046 891 1001T996
874T1008 682L888 0H726L740 84Q685 33 609 5T452 -24ZM488 124Q559 124 635 160T772 258L802 436Q751 472 693 492T578 512Q497 512 438 485T347 407T314 288Q314 213 361 169T488 124Z" />
<glyph unicode="b" horiz-adv-x="1082" d="M596 -24Q521 -24 453 8T344 92L328 0H162L404 1378L584 1444L496 942Q550 992 618 1019T756 1046Q855 1046 930 995T1048 851T1090 636Q1090 440 1028 292T855 60T596 -24ZM584 134Q685 134 760 194T878 365T920 622Q920
748 865 819T710 890Q644 890 576 854T464 758L376 266Q408 205 463 170T584 134Z" />
<glyph unicode="c" horiz-adv-x="956" d="M524 -24Q365 -24 271 91T176 400Q176 593 239 738T415 965T678 1046Q800 1046 886 984T1000 810L838 752Q823 818 777 854T660 890Q568 890 498 829T388 658T348 406Q348 276 397 205T536 134Q614 134 673 173T770 288L912
232Q857 109 756 43T524 -24Z" />
<glyph unicode="d" horiz-adv-x="1085" d="M511 -24Q358 -24 268 94T177 414Q177 601 242 743T423 966T691 1046Q763 1046 824 1020T925 946L1001 1378L1183 1444L929 0H761L775 88Q726 33 659 5T511 -24ZM557 134Q625 134 693 172T807 272L893 758Q865 820 812
855T691 890Q588 890 512 832T393 668T351 418Q351 286 406 210T557 134Z" />
<glyph unicode="e" horiz-adv-x="1031" d="M551 -24Q434 -24 350 31T221 184T175 406Q175 540 213 656T320 859T486 996T697 1046Q804 1046 884 1005T1008 879T1053 660Q1053 597 1042 544T1015 444H349Q349 348 371 278T443 169T571 130Q627 130 687 151T805
218L885 98Q816 43 733 10T551 -24ZM373 592H879Q895 680 880 748T816 855T687 894Q598 894 535 852T431 740T373 592Z" />
<glyph unicode="f" horiz-adv-x="638" d="M200 0L354 870H194L220 1022H380L412 1200Q432 1311 497 1368T668 1426Q712 1426 753 1415T840 1376L814 1232Q775 1252 744 1261T680 1270Q638 1270 613 1244T576 1162L550 1022H774L748 870H524L370 0H200Z" />
<glyph unicode="g" horiz-adv-x="1085" d="M381 -426L327 -286Q478 -279 567 -244T698 -154T751 -30L771 92Q734 49 671 13T511 -24Q406 -24 331 30T216 180T175 396Q175 588 239 734T417 963T675 1046Q743 1046 808 1019T919 932L937 1022H1105L921 -4Q891 -174
815 -262T627 -384T381 -426ZM559 134Q637 134 703 178T805 282L889 752Q870 805 815 847T679 890Q572 890 498 824T386 649T347 416Q347 287 404 211T559 134Z" />
<glyph unicode="h" horiz-adv-x="1086" d="M162 0L404 1378L584 1444L490 910Q546 976 616 1011T762 1046Q882 1046 952 995T1042 839T1034 570L934 0H768L876 610Q901 748 860 819T714 890Q609 890 535 817T438 618L330 0H162Z" />
<glyph unicode="i" horiz-adv-x="492" d="M162 0L342 1022H510L330 0H162ZM460 1210Q423 1210 397 1236T370 1300Q370 1350 406 1388T490 1426Q531 1426 556 1401T582 1336Q582 1285 545 1248T460 1210Z" />
<glyph unicode="j" horiz-adv-x="504" d="M-72 -436L-126 -294Q18 -277 75 -229T148 -86L344 1022H514L318 -90Q298 -206 251 -276T124 -383T-72 -436ZM464 1210Q424 1210 399 1236T374 1300Q374 1335 391 1363T436 1409T494 1426Q536 1426 561 1400T586 1336Q586
1301 569 1273T523 1227T464 1210Z" />
<glyph unicode="k" horiz-adv-x="1006" d="M162 0L404 1378L584 1444L446 664L836 1022H1042L720 730L960 0H774L588 610L408 444L330 0H162Z" />
<glyph unicode="l" horiz-adv-x="510" d="M168 0L412 1378L592 1444L338 0H168Z" />
<glyph unicode="m" horiz-adv-x="1635" d="M161 0L341 1022H507L491 924Q545 981 616 1013T763 1046Q846 1046 908 1006T999 892Q1064 969 1144 1007T1319 1046Q1421 1046 1491 998T1591 865T1601 670L1481 0H1311L1421 630Q1443 753 1404 821T1273 890Q1182 890
1111 818T1019 632L907 0H737L847 630Q869 756 831 823T697 890Q606 890 535 819T443 632L331 0H161Z" />
<glyph unicode="n" horiz-adv-x="1089" d="M161 0L341 1022H511L491 912Q545 977 616 1011T765 1046Q879 1046 949 991T1042 832T1039 578L937 0H767L875 614Q898 746 858 818T717 890Q614 890 536 814T437 612L331 0H161Z" />
<glyph unicode="o" horiz-adv-x="1060" d="M546 -24Q371 -24 272 88T172 400Q172 585 240 731T427 961T696 1046Q866 1046 966 932T1066 626Q1066 439 998 292T813 61T546 -24ZM550 134Q649 134 727 197T851 368T896 614Q896 743 840 816T686 890Q588 890 510
827T387 656T342 410Q342 281 397 208T550 134Z" />
<glyph unicode="p" horiz-adv-x="1092" d="M89 -406L341 1022H511L495 932Q609 1046 771 1046Q869 1046 942 994T1056 846T1097 622Q1097 437 1034 291T860 61T611 -24Q529 -24 462 7T347 100L271 -338L89 -406ZM603 134Q698 134 770 193T884 359T925 604Q925
741 872 815T721 890Q645 890 576 852T461 748L377 272Q416 203 473 169T603 134Z" />
<glyph unicode="q" horiz-adv-x="1087" d="M687 -400L775 96Q711 35 646 6T503 -24Q402 -24 328 26T214 168T173 388Q173 579 238 727T418 961T679 1046Q759 1046 824 1016T923 932L939 1022H1107L869 -334L687 -400ZM551 134Q614 134 680 170T807 276L889 750Q867
816 813 853T685 890Q590 890 514 826T392 651T347 402Q347 272 399 203T551 134Z" />
<glyph unicode="r" horiz-adv-x="763" d="M161 0L341 1022H511L487 890Q541 964 613 1005T757 1046Q841 1046 891 996L839 834Q808 857 776 867T709 878Q645 878 588 840T490 734T433 576L331 0H161Z" />
<glyph unicode="s" horiz-adv-x="902" d="M480 -24Q405 -24 339 -3T219 59T130 156L256 256Q297 195 359 160T488 124Q578 124 633 166T688 278Q688 329 647 369T498 458Q356 524 298 592T240 754Q240 841 285 906T410 1009T596 1046Q704 1046 790 1005T924 888L802
796Q716 900 584 900Q505 900 454 862T402 764Q402 719 439 684T576 604Q729 538 792 463T856 282Q856 143 754 60T480 -24Z" />
<glyph unicode="t" horiz-adv-x="708" d="M418 -24Q315 -24 271 46T250 250L358 870H192L220 1022H384L448 1378L628 1444L554 1022H794L768 870H528L424 288Q408 198 423 165T496 132Q532 132 568 143T652 182L608 18Q530 -24 418 -24Z" />
<glyph unicode="u" horiz-adv-x="1088" d="M506 -24Q391 -24 320 28T224 180T224 426L328 1022H498L390 414Q365 276 407 205T552 134Q666 134 738 202T832 400L940 1022H1110L930 0H760L778 98Q729 37 661 7T506 -24Z" />
<glyph unicode="v" horiz-adv-x="990" d="M426 0L246 1022H412L522 348Q527 322 530 296T536 248Q542 262 558 294T586 348L932 1022H1108L574 0H426Z" />
<glyph unicode="w" horiz-adv-x="1372" d="M328 0L246 1022H408L446 318Q448 294 448 268T448 226Q456 243 468 271T488 318L796 1022H930L1000 318Q1003 288 1005 267T1008 226Q1014 244 1023 267T1042 318L1318 1022H1486L1066 0H906L828 640Q825 664 823 693T818
738Q812 723 798 689T774 636L484 0H328Z" />
<glyph unicode="x" horiz-adv-x="1004" d="M72 0L500 530L276 1022H460L584 747Q592 731 600 712T618 670Q633 691 647 709T676 746L900 1022H1086L686 528L928 0H744L600 314Q593 331 585 350T568 388Q555 369 541 351T512 314L258 0H72Z" />
<glyph unicode="y" horiz-adv-x="1024" d="M212 -388L432 30L246 1022H418L534 318Q537 300 541 278T548 240Q554 252 566 275T588 318L960 1022H1142L390 -388H212Z" />
<glyph unicode="z" horiz-adv-x="972" d="M124 0L146 116L766 870H316L342 1022H1020L1002 910L376 152H866L838 0H124Z" />
<glyph unicode="{" horiz-adv-x="734" d="M600 -260Q464 -248 378 -167T292 82Q292 112 295 144T304 210L322 312Q325 327 325 342T326 370Q326 433 300 471T226 510H206L232 656H252Q311 656 355 711T416 856L448 1036Q481 1221 601 1322T898 1424L870 1276Q762
1272 695 1200T606 998L580 844Q563 743 527 686T440 606T326 582L324 574Q365 571 403 553T465 493T490 372Q490 351 487 324T478 268L460 164Q456 140 453 120T450 80Q450 -10 494 -60T626 -114L600 -260Z" />
<glyph unicode="|" horiz-adv-x="540" d="M306 -756V2124H480V-756H306Z" />
<glyph unicode="}" horiz-adv-x="734" d="M42 -260L68 -112Q178 -107 243 -35T332 168L356 304Q374 405 408 466T494 556T616 584L618 592Q543 607 497 652T450 794Q450 815 453 840T460 894L478 998Q483 1022 485 1044T488 1086Q488 1269 312 1278L340 1424Q487
1417 567 1336T648 1084Q648 1051 645 1014T634 936L620 860Q616 841 614 820T612 770Q612 716 637 685T712 654H732L706 510H688Q628 510 584 456T524 312L492 136Q457 -56 347 -158T42 -260Z" />
<glyph unicode="~" horiz-adv-x="1260" d="M286 542Q295 617 327 682T418 787T568 828Q633 828 688 807T794 760Q837 738 878 722T960 706Q1019 706 1058 740T1110 828H1216Q1207 753 1175 688T1083 583T936 542Q872 542 818 563T712 610Q669 631 628 647T544
664Q486 664 446 630T392 542H286Z" />
<glyph unicode="&#xa0;" horiz-adv-x="456" />
<glyph unicode="&#xa1;" horiz-adv-x="540" d="M114 -400L190 34L352 634H404L354 34L280 -400H114ZM408 776Q357 776 327 810T296 890Q296 952 342 999T450 1046Q501 1046 531 1012T562 932Q562 871 516 824T408 776Z" />
<glyph unicode="&#xa2;" horiz-adv-x="1006" d="M430 -24L466 176Q352 208 291 314T230 576Q230 749 281 884T427 1106T650 1222L686 1424H848L810 1228Q909 1213 973 1157T1056 996L888 936Q876 995 838 1031T730 1068Q622 1068 549 1006T439 837T402 594Q402
476 450 403T596 330Q664 330 722 368T812 482L962 428Q911 311 827 245T626 168L592 -24H430Z" />
<glyph unicode="&#xa3;" horiz-adv-x="1164" d="M178 0L210 180Q275 209 323 268T403 400T446 540Q449 557 450 567T452 584H272L298 730H444Q441 742 437 757T430 782Q420 818 411 858T402 950Q402 1076 459 1184T631 1358T920 1424Q1045 1424 1134 1387T1288
1290L1198 1134Q1175 1157 1137 1187T1038 1239T892 1262Q784 1262 715 1220T612 1111T578 968Q578 923 587 884T606 810Q612 789 616 769T624 730H942L916 584H630Q629 574 627 563T622 534Q603 431 537 337T378 162H1110L1082 0H178Z" />
<glyph unicode="&#xa4;" horiz-adv-x="1234" d="M238 122L140 250L296 390Q283 423 276 472T268 562Q268 669 298 762T394 944L286 1082L424 1208L530 1076Q592 1115 665 1138T820 1162Q900 1162 966 1140T1078 1076L1228 1208L1328 1076L1176 942Q1190 908 1195
860T1200 770Q1200 664 1170 569T1072 384L1182 244L1044 122L936 258Q873 216 800 194T646 172Q565 172 501 193T388 256L238 122ZM676 336Q777 336 857 388T983 529T1030 730Q1030 844 968 921T792 998Q694 998 614 946T486 803T438 602Q438 488 501 412T676
336Z" />
<glyph unicode="&#xa5;" horiz-adv-x="1102" d="M470 0L510 226H208L232 366H534L556 496H256L280 636H576L300 1400H482L686 790L1116 1400H1294L748 636H1028L1004 496H720L698 366H980L958 226H674L634 0H470Z" />
<glyph unicode="&#xa6;" horiz-adv-x="540" d="M316 732V1650H490V732H316ZM316 -450V468H490V-450H316Z" />
<glyph unicode="&#xa7;" horiz-adv-x="1042" d="M496 -240Q351 -240 251 -184T110 -54L252 52Q267 28 299 -2T384 -54T512 -76Q587 -76 645 -59T735 -2T768 106Q768 180 697 226T520 320Q438 357 378 393T284 476T250 594Q250 690 304 757T434 854Q386 887 361
944T336 1068Q336 1183 395 1262T551 1383T760 1424Q903 1424 986 1372T1106 1260L962 1158Q940 1190 890 1223T738 1256Q635 1256 574 1216T512 1100Q512 1056 545 1022T637 959T770 898Q838 870 896 836T990 751T1026 618Q1026 528 990 460T868 350Q909 313 928
261T948 146Q948 28 893 -58T737 -192T496 -240ZM740 428Q791 448 821 484T852 572Q852 619 818 653T725 715T590 772Q517 760 474 722T430 630Q430 588 465 557T570 495T740 428Z" />
<glyph unicode="&#xa8;" horiz-adv-x="718" d="M810 1210Q771 1210 746 1236T720 1300Q720 1353 759 1388T844 1424Q883 1424 907 1398T932 1334Q932 1300 915 1272T869 1227T810 1210ZM478 1210Q439 1210 415 1236T390 1300Q390 1334 407 1362T453 1407T512 1424Q553
1424 576 1398T600 1334Q600 1283 563 1247T478 1210Z" />
<glyph unicode="&#xa9;" horiz-adv-x="1670" d="M952 -24Q798 -24 667 31T437 184T283 414T228 700Q228 854 283 985T436 1215T666 1369T952 1424Q1106 1424 1237 1369T1467 1216T1621 986T1676 700Q1676 546 1621 415T1468 185T1238 31T952 -24ZM962 274Q843
274 762 327T640 478T598 708Q598 801 622 880T693 1019T810 1111T974 1144Q1084 1144 1158 1088T1272 932L1132 872Q1111 925 1070 961T960 998Q880 998 835 961T771 858T752 708Q752 617 772 552T838 451T964 416Q1026 416 1076 449T1144 558L1276 506Q1240 394
1158 334T962 274ZM952 100Q1080 100 1187 145T1373 272T1496 463T1540 700Q1540 828 1497 937T1374 1127T1187 1253T952 1298Q781 1298 647 1220T436 1007T358 700Q358 530 435 394T647 179T952 100Z" />
<glyph unicode="&#xaa;" horiz-adv-x="884" d="M486 546Q383 546 310 609T236 784Q236 897 292 969T433 1075T600 1110Q650 1110 704 1097T796 1066L802 1098Q807 1125 807 1139T808 1168Q808 1231 770 1258T654 1286Q584 1286 523 1265T414 1210L398 1342Q451
1378 529 1401T698 1424Q756 1424 816 1405T918 1337T960 1200Q960 1181 957 1156T946 1092L854 566H706L718 628Q679 597 618 572T486 546ZM524 680Q583 680 643 708T742 768L770 928Q737 948 688 962T594 976Q545 976 498 959T421 903T390 804Q390 749 425 715T524
680Z" />
<glyph unicode="&#xab;" horiz-adv-x="1006" d="M770 0L568 512L950 1022H1132L748 504L950 0H770ZM376 0L174 512L556 1022H734L352 504L552 0H376Z" />
<glyph unicode="&#xac;" horiz-adv-x="1260" d="M1034 344V772H280V934H1208V344H1034Z" />
<glyph unicode="&#xad;" horiz-adv-x="786" d="M260 512L290 678H736L708 512H260Z" />
<glyph unicode="&#xae;" horiz-adv-x="1670" d="M950 -24Q796 -24 665 31T435 184T281 414T226 700Q226 854 281 985T434 1215T664 1369T950 1424Q1104 1424 1235 1369T1465 1216T1619 986T1674 700Q1674 546 1619 415T1466 185T1236 31T950 -24ZM950 102Q1078
102 1185 147T1371 273T1494 464T1538 700Q1538 828 1495 936T1372 1126T1185 1253T950 1298Q780 1298 647 1220T437 1006T360 700Q360 530 436 395T646 181T950 102ZM656 276V1122H1028Q1123 1122 1179 1084T1259 989T1284 874Q1284 793 1235 720T1090 626L1288
276H1128L948 618H794V276H656ZM794 744H1030Q1089 744 1115 782T1142 872Q1142 899 1132 926T1097 972T1030 990H794V744Z" />
<glyph unicode="&#xaf;" horiz-adv-x="718" d="M328 1206L354 1352H988L962 1206H328Z" />
<glyph unicode="&#xb0;" horiz-adv-x="806" d="M576 894Q444 894 364 980T284 1194Q284 1306 338 1393T481 1530T672 1580Q760 1580 825 1542T926 1436T962 1282Q962 1172 908 1084T765 945T576 894ZM596 1058Q649 1058 693 1086T765 1162T792 1270Q792 1336 755
1378T654 1420Q602 1420 556 1393T481 1319T452 1210Q452 1146 492 1102T596 1058Z" />
<glyph unicode="&#xb1;" horiz-adv-x="1260" d="M662 404V728H286V892H662V1216H836V892H1214V728H836V404H662ZM286 0V164H1214V0H286Z" />
<glyph unicode="&#xb2;" horiz-adv-x="714" d="M229 888Q249 996 294 1069T411 1199T585 1320Q657 1364 700 1406T743 1516Q743 1552 718 1586T631 1620Q570 1620 529 1588T461 1490L345 1534Q384 1626 459 1686T649 1746Q725 1746 778 1717T860 1638T889 1524Q889
1452 863 1398T777 1295T619 1188Q544 1145 497 1107T421 1018H799L775 888H229Z" />
<glyph unicode="&#xb3;" horiz-adv-x="724" d="M507 866Q398 866 334 925T251 1082L387 1130Q401 1063 437 1027T531 990Q605 990 647 1035T689 1146Q689 1188 665 1223T587 1258H519L539 1380H587Q661 1380 694 1426T727 1524Q727 1562 703 1592T629 1622Q580
1622 537 1590T465 1508L353 1552Q400 1636 483 1691T663 1746Q761 1746 818 1693T875 1556Q875 1484 834 1423T729 1334Q779 1316 808 1272T837 1168Q837 1078 795 1010T678 904T507 866Z" />
<glyph unicode="&#xb4;" horiz-adv-x="718" d="M526 1152L774 1464H988L670 1152H526Z" />
<glyph unicode="&#xb5;" horiz-adv-x="1095" d="M89 -406L341 1022H509L401 416Q379 287 411 211T565 134Q624 134 680 160T780 246T841 406L951 1022H1117L937 0H771L791 112Q737 39 666 8T527 -24Q472 -24 420 1T343 82L269 -338L89 -406Z" />
<glyph unicode="&#xb6;" horiz-adv-x="1230" d="M470 -400L638 554Q487 556 397 610T268 747T228 916Q228 996 255 1081T342 1238T502 1355T746 1400H1298L1022 -178L842 -256L1104 1232H922L648 -322L470 -400Z" />
<glyph unicode="&#xb7;" horiz-adv-x="448" d="M324 562Q275 562 246 597T216 678Q216 740 262 787T368 834Q421 834 450 800T480 718Q480 657 435 610T324 562Z" />
<glyph unicode="&#xb8;" horiz-adv-x="718" d="M168 -474Q99 -474 58 -450T-6 -396L94 -334Q103 -346 120 -356T168 -366Q213 -366 246 -338T280 -264Q280 -225 254 -203T184 -180Q160 -180 143 -184T112 -196L84 -154L248 20H342L244 -106Q343 -106 383 -150T424
-252Q424 -352 352 -413T168 -474Z" />
<glyph unicode="&#xb9;" horiz-adv-x="400" d="M309 888L423 1530H331L349 1636Q405 1636 439 1662T495 1732H597L449 888H309Z" />
<glyph unicode="&#xba;" horiz-adv-x="904" d="M550 544Q411 544 331 636T250 886Q250 1050 307 1171T467 1358T702 1424Q843 1424 923 1331T1004 1080Q1004 916 947 796T788 610T550 544ZM574 694Q709 694 778 797T848 1062Q848 1163 805 1219T678 1276Q557 1276
481 1177T404 912Q404 810 449 752T574 694Z" />
<glyph unicode="&#xbb;" horiz-adv-x="1006" d="M446 0L830 516L632 1022H810L1012 512L630 0H446ZM50 0L436 516L236 1022H414L616 512L234 0H50Z" />
<glyph unicode="&#xbc;" horiz-adv-x="1350" d="M252 566L366 1208H274L292 1314Q348 1314 382 1340T438 1410H540L392 566H252ZM34 -24L1210 1424H1370L196 -24H34ZM1038 0L1074 202H674L688 284L1210 846H1324L1234 330H1336L1312 202H1210L1176 0H1038ZM870
330H1096L1152 646L870 330Z" />
<glyph unicode="&#xbd;" horiz-adv-x="1438" d="M252 566L366 1208H274L292 1314Q348 1314 382 1340T438 1410H540L392 566H252ZM34 -24L1210 1424H1370L196 -24H34ZM796 0Q816 108 861 181T978 311T1152 432Q1224 476 1267 518T1310 628Q1310 664 1285 698T1198
732Q1137 732 1096 700T1028 602L912 646Q951 738 1026 798T1216 858Q1292 858 1345 829T1427 750T1456 636Q1456 564 1430 510T1344 407T1186 300Q1111 257 1064 219T988 130H1366L1342 0H796Z" />
<glyph unicode="&#xbe;" horiz-adv-x="1622" d="M450 544Q341 544 277 603T194 760L330 808Q344 741 380 705T474 668Q548 668 590 713T632 824Q632 866 608 901T530 936H462L482 1058H530Q604 1058 637 1104T670 1202Q670 1240 646 1270T572 1300Q523 1300 480
1268T408 1186L296 1230Q343 1314 426 1369T606 1424Q704 1424 761 1371T818 1234Q818 1162 777 1101T672 1012Q722 994 751 950T780 846Q780 756 738 688T621 582T450 544ZM308 -24L1484 1424H1644L470 -24H308ZM1310 0L1346 202H946L960 284L1482 846H1596L1506
330H1608L1584 202H1482L1448 0H1310ZM1142 330H1368L1424 646L1142 330Z" />
<glyph unicode="&#xbf;" horiz-adv-x="1006" d="M432 -402Q318 -402 241 -359T124 -243T84 -82Q84 24 117 94T205 214T322 312Q374 351 421 392T502 485T550 612L556 644H722L716 612Q697 511 655 441T557 321T446 228Q395 190 351 151T281 62T254 -60Q254 -133
305 -187T460 -242Q547 -242 615 -207T729 -104T792 58H956Q931 -82 856 -185T671 -345T432 -402ZM668 776Q617 776 587 811T556 892Q556 954 602 1001T710 1048Q761 1048 791 1014T822 932Q822 871 776 824T668 776Z" />
<glyph unicode="&#xc0;" horiz-adv-x="1296" d="M92 0L816 1400H966L1202 0H1030L974 344H450L274 0H92ZM528 498H950L866 1016Q863 1032 859 1056T852 1103T848 1138Q843 1126 833 1104T812 1058T792 1018L528 498ZM854 1530L564 1842H798L1016 1530H854Z" />
<glyph unicode="&#xc1;" horiz-adv-x="1296" d="M92 0L816 1400H966L1202 0H1030L974 344H450L274 0H92ZM528 498H950L866 1016Q863 1032 859 1056T852 1103T848 1138Q843 1126 833 1104T812 1058T792 1018L528 498ZM798 1530L1126 1842H1360L962 1530H798Z" />
<glyph unicode="&#xc2;" horiz-adv-x="1296" d="M92 0L816 1400H966L1202 0H1030L974 344H450L274 0H92ZM528 498H950L866 1016Q863 1032 859 1056T852 1103T848 1138Q843 1126 833 1104T812 1058T792 1018L528 498ZM554 1530L878 1842H1054L1272 1530H1120L944
1716L704 1530H554Z" />
<glyph unicode="&#xc3;" horiz-adv-x="1296" d="M92 0L816 1400H966L1202 0H1030L974 344H450L274 0H92ZM528 498H950L866 1016Q863 1032 859 1056T852 1103T848 1138Q843 1126 833 1104T812 1058T792 1018L528 498ZM1072 1572Q1017 1572 973 1590T897 1627Q871
1642 840 1656T772 1670Q736 1670 707 1648T666 1580H582Q600 1690 656 1752T812 1814Q869 1814 911 1796T990 1757Q1016 1743 1046 1730T1110 1716Q1146 1716 1176 1738T1218 1806H1302Q1283 1698 1227 1635T1072 1572Z" />
<glyph unicode="&#xc4;" horiz-adv-x="1296" d="M92 0L816 1400H966L1202 0H1030L974 344H450L274 0H92ZM528 498H950L866 1016Q863 1032 859 1056T852 1103T848 1138Q843 1126 833 1104T812 1058T792 1018L528 498ZM1106 1580Q1067 1580 1042 1606T1016 1670Q1016
1721 1055 1756T1140 1792Q1179 1792 1203 1766T1228 1702Q1228 1668 1211 1641T1165 1597T1106 1580ZM740 1580Q701 1580 677 1606T652 1670Q652 1704 669 1731T715 1775T774 1792Q815 1792 838 1766T862 1702Q862 1651 825 1616T740 1580Z" />
<glyph unicode="&#xc5;" horiz-adv-x="1296" d="M92 0L756 1288Q719 1314 697 1357T674 1452Q674 1526 713 1586T815 1682T946 1718Q1029 1718 1082 1662T1136 1522Q1136 1447 1093 1384T986 1288L1202 0H1030L974 344H450L274 0H92ZM528 498H950L866 1016Q863
1033 860 1056T853 1101T848 1138Q843 1126 833 1104T812 1059T792 1018L528 498ZM884 1376Q934 1376 971 1413T1008 1508Q1008 1549 985 1572T924 1596Q879 1596 842 1562T804 1468Q804 1429 827 1403T884 1376Z" />
<glyph unicode="&#xc6;" horiz-adv-x="1678" d="M-32 0L996 1400H1764L1738 1242H1206L1128 804H1456L1426 646H1100L1016 158H1590L1562 0H816L876 344H416L168 0H-32ZM530 498H904L1026 1198Q1013 1174 992 1143T950 1084L530 498Z" />
<glyph unicode="&#xc7;" horiz-adv-x="1232" d="M708 -24Q584 -24 494 25T346 157T260 344T232 558Q232 724 279 879T415 1157T634 1352T926 1424Q1038 1424 1117 1386T1247 1291T1322 1176L1176 1102Q1137 1171 1076 1217T910 1264Q787 1264 693 1202T536 1038T441
815T408 574Q408 466 440 366T540 202T720 138Q795 138 853 161T957 225T1040 316L1184 248Q1136 172 1069 111T913 13T708 -24ZM610 -474Q541 -474 500 -450T436 -396L536 -334Q545 -346 562 -356T610 -366Q655 -366 688 -338T722 -264Q722 -225 696 -203T626
-180Q604 -180 587 -183T552 -196L526 -154L670 2H768L686 -106Q785 -106 825 -152T866 -264Q866 -357 794 -415T610 -474Z" />
<glyph unicode="&#xc8;" d="M182 0L428 1400H1234L1208 1242H574L498 804H910L880 646H470L384 158H1060L1032 0H182ZM796 1530L506 1842H740L958 1530H796Z" />
<glyph unicode="&#xc9;" d="M182 0L428 1400H1234L1208 1242H574L498 804H910L880 646H470L384 158H1060L1032 0H182ZM740 1530L1068 1842H1302L904 1530H740Z" />
<glyph unicode="&#xca;" d="M182 0L428 1400H1234L1208 1242H574L498 804H910L880 646H470L384 158H1060L1032 0H182ZM496 1530L820 1842H996L1214 1530H1062L886 1716L646 1530H496Z" />
<glyph unicode="&#xcb;" d="M182 0L428 1400H1234L1208 1242H574L498 804H910L880 646H470L384 158H1060L1032 0H182ZM1048 1580Q1009 1580 984 1606T958 1670Q958 1721 997 1756T1082 1792Q1121 1792 1145 1766T1170 1702Q1170 1668 1153 1641T1107 1597T1048
1580ZM682 1580Q643 1580 619 1606T594 1670Q594 1704 611 1731T657 1775T716 1792Q757 1792 780 1766T804 1702Q804 1651 767 1616T682 1580Z" />
<glyph unicode="&#xcc;" horiz-adv-x="536" d="M182 0L428 1400H602L356 0H182ZM480 1530L190 1842H424L642 1530H480Z" />
<glyph unicode="&#xcd;" horiz-adv-x="536" d="M182 0L428 1400H602L356 0H182ZM424 1530L752 1842H986L588 1530H424Z" />
<glyph unicode="&#xce;" horiz-adv-x="536" d="M182 0L428 1400H602L356 0H182ZM180 1530L504 1842H680L898 1530H746L570 1716L330 1530H180Z" />
<glyph unicode="&#xcf;" horiz-adv-x="536" d="M182 0L428 1400H602L356 0H182ZM732 1580Q693 1580 668 1606T642 1670Q642 1721 681 1756T766 1792Q805 1792 829 1766T854 1702Q854 1668 837 1641T791 1597T732 1580ZM366 1580Q327 1580 303 1606T278 1670Q278
1704 295 1731T341 1775T400 1792Q441 1792 464 1766T488 1702Q488 1651 451 1616T366 1580Z" />
<glyph unicode="&#xd0;" horiz-adv-x="1320" d="M154 628L178 770H826L802 628H154ZM182 0L428 1400H802Q946 1400 1046 1348T1209 1210T1299 1017T1328 802Q1328 698 1305 587T1229 371T1089 183T875 50T574 0H182ZM382 158H596Q752 158 858 218T1029 375T1121
584T1150 800Q1150 911 1114 1012T1001 1178T798 1242H572L382 158Z" />
<glyph unicode="&#xd1;" horiz-adv-x="1354" d="M182 0L428 1400H590L1022 390Q1030 374 1041 346T1056 302Q1059 317 1063 342T1070 388L1248 1400H1420L1174 0H1008L598 952Q592 966 581 994T559 1048T544 1086Q543 1075 539 1048T530 993T522 950L354 0H182ZM1108
1572Q1053 1572 1009 1590T933 1627Q907 1642 876 1656T808 1670Q772 1670 743 1648T702 1580H618Q636 1690 692 1752T848 1814Q905 1814 947 1796T1026 1757Q1052 1743 1082 1730T1146 1716Q1182 1716 1212 1738T1254 1806H1338Q1319 1698 1263 1635T1108 1572Z"
/>
<glyph unicode="&#xd2;" horiz-adv-x="1380" d="M712 -24Q582 -24 490 23T341 150T257 332T230 546Q230 668 257 793T338 1031T475 1232T668 1372T918 1424Q1046 1424 1137 1376T1285 1247T1369 1065T1396 858Q1396 734 1369 609T1287 370T1150 168T959 28T712
-24ZM712 136Q815 136 897 178T1040 293T1142 459T1203 654T1224 858Q1224 958 1193 1051T1094 1204T914 1264Q810 1264 728 1222T585 1106T483 940T422 746T402 546Q402 440 433 347T532 195T712 136ZM878 1530L588 1842H822L1040 1530H878Z" />
<glyph unicode="&#xd3;" horiz-adv-x="1380" d="M712 -24Q582 -24 490 23T341 150T257 332T230 546Q230 668 257 793T338 1031T475 1232T668 1372T918 1424Q1046 1424 1137 1376T1285 1247T1369 1065T1396 858Q1396 734 1369 609T1287 370T1150 168T959 28T712
-24ZM712 136Q815 136 897 178T1040 293T1142 459T1203 654T1224 858Q1224 958 1193 1051T1094 1204T914 1264Q810 1264 728 1222T585 1106T483 940T422 746T402 546Q402 440 433 347T532 195T712 136ZM822 1530L1150 1842H1384L986 1530H822Z" />
<glyph unicode="&#xd4;" horiz-adv-x="1380" d="M712 -24Q582 -24 490 23T341 150T257 332T230 546Q230 668 257 793T338 1031T475 1232T668 1372T918 1424Q1046 1424 1137 1376T1285 1247T1369 1065T1396 858Q1396 734 1369 609T1287 370T1150 168T959 28T712
-24ZM712 136Q815 136 897 178T1040 293T1142 459T1203 654T1224 858Q1224 958 1193 1051T1094 1204T914 1264Q810 1264 728 1222T585 1106T483 940T422 746T402 546Q402 440 433 347T532 195T712 136ZM578 1530L902 1842H1078L1296 1530H1144L968 1716L728 1530H578Z"
/>
<glyph unicode="&#xd5;" horiz-adv-x="1380" d="M712 -24Q582 -24 490 23T341 150T257 332T230 546Q230 668 257 793T338 1031T475 1232T668 1372T918 1424Q1046 1424 1137 1376T1285 1247T1369 1065T1396 858Q1396 734 1369 609T1287 370T1150 168T959 28T712
-24ZM712 136Q815 136 897 178T1040 293T1142 459T1203 654T1224 858Q1224 958 1193 1051T1094 1204T914 1264Q810 1264 728 1222T585 1106T483 940T422 746T402 546Q402 440 433 347T532 195T712 136ZM1096 1572Q1041 1572 997 1590T921 1627Q895 1642 864 1656T796
1670Q760 1670 731 1648T690 1580H606Q624 1690 680 1752T836 1814Q893 1814 935 1796T1014 1757Q1040 1743 1070 1730T1134 1716Q1170 1716 1200 1738T1242 1806H1326Q1307 1698 1251 1635T1096 1572Z" />
<glyph unicode="&#xd6;" horiz-adv-x="1380" d="M712 -24Q582 -24 490 23T341 150T257 332T230 546Q230 668 257 793T338 1031T475 1232T668 1372T918 1424Q1046 1424 1137 1376T1285 1247T1369 1065T1396 858Q1396 734 1369 609T1287 370T1150 168T959 28T712
-24ZM712 136Q815 136 897 178T1040 293T1142 459T1203 654T1224 858Q1224 958 1193 1051T1094 1204T914 1264Q810 1264 728 1222T585 1106T483 940T422 746T402 546Q402 440 433 347T532 195T712 136ZM1130 1580Q1091 1580 1066 1606T1040 1670Q1040 1721 1079
1756T1164 1792Q1203 1792 1227 1766T1252 1702Q1252 1668 1235 1641T1189 1597T1130 1580ZM764 1580Q725 1580 701 1606T676 1670Q676 1704 693 1731T739 1775T798 1792Q839 1792 862 1766T886 1702Q886 1651 849 1616T764 1580Z" />
<glyph unicode="&#xd7;" horiz-adv-x="1260" d="M424 234L298 358L632 688L300 1016L420 1132L748 804L1076 1134L1198 1012L868 684L1196 354L1080 236L752 566L424 234Z" />
<glyph unicode="&#xd8;" horiz-adv-x="1380" d="M134 -24L306 186Q266 257 248 357T230 544Q230 665 256 789T335 1028T472 1231T668 1372T928 1424Q1027 1424 1103 1396T1232 1318L1320 1424H1492L1318 1214Q1359 1144 1377 1044T1396 856Q1396 734 1370 610T1290
372T1154 169T958 28T700 -24Q598 -24 521 4T388 80L304 -24H134ZM716 136Q819 136 901 178T1043 292T1144 457T1204 649T1224 848Q1224 896 1216 957T1192 1060L500 218Q538 179 591 158T716 136ZM430 338L1120 1182Q1083 1221 1031 1242T906 1264Q803 1264 722
1222T580 1106T481 941T422 748T402 550Q402 502 408 441T430 338Z" />
<glyph unicode="&#xd9;" horiz-adv-x="1318" d="M684 -24Q513 -24 411 48T274 250T270 558L418 1400H592L440 538Q419 416 435 326T514 186T692 136Q777 136 852 169T984 286T1068 524L1222 1400H1394L1240 518Q1214 368 1166 265T1047 97T886 5T684 -24ZM870
1532L580 1844H814L1032 1532H870Z" />
<glyph unicode="&#xda;" horiz-adv-x="1318" d="M684 -24Q513 -24 411 48T274 250T270 558L418 1400H592L440 538Q419 416 435 326T514 186T692 136Q777 136 852 169T984 286T1068 524L1222 1400H1394L1240 518Q1214 368 1166 265T1047 97T886 5T684 -24ZM814
1532L1142 1844H1376L978 1532H814Z" />
<glyph unicode="&#xdb;" horiz-adv-x="1318" d="M684 -24Q513 -24 411 48T274 250T270 558L418 1400H592L440 538Q419 416 435 326T514 186T692 136Q777 136 852 169T984 286T1068 524L1222 1400H1394L1240 518Q1214 368 1166 265T1047 97T886 5T684 -24ZM570
1532L894 1844H1070L1288 1532H1136L960 1718L720 1532H570Z" />
<glyph unicode="&#xdc;" horiz-adv-x="1318" d="M684 -24Q513 -24 411 48T274 250T270 558L418 1400H592L440 538Q419 416 435 326T514 186T692 136Q777 136 852 169T984 286T1068 524L1222 1400H1394L1240 518Q1214 368 1166 265T1047 97T886 5T684 -24ZM1122
1582Q1083 1582 1058 1608T1032 1672Q1032 1723 1071 1758T1156 1794Q1195 1794 1219 1768T1244 1704Q1244 1670 1227 1643T1181 1599T1122 1582ZM756 1582Q717 1582 693 1608T668 1672Q668 1706 685 1733T731 1777T790 1794Q831 1794 854 1768T878 1704Q878 1653
841 1618T756 1582Z" />
<glyph unicode="&#xdd;" horiz-adv-x="1216" d="M520 0L620 562L318 1400H496L726 718L1204 1400H1390L786 550L690 0H520ZM752 1530L1080 1842H1314L916 1530H752Z" />
<glyph unicode="&#xde;" horiz-adv-x="1200" d="M182 0L428 1400H598L552 1130H896Q1000 1130 1071 1100T1185 1020T1247 908T1266 782Q1266 697 1236 611T1143 452T985 336T756 292H404L352 0H182ZM432 452H790Q874 452 932 480T1027 554T1079 652T1096 754Q1096
804 1077 854T1012 938T882 972H524L432 452Z" />
<glyph unicode="&#xdf;" horiz-adv-x="1088" d="M72 -406L312 956Q342 1128 418 1230T591 1378T784 1424Q884 1424 958 1386T1074 1278T1116 1116Q1116 1042 1090 973T1009 849T874 768Q972 732 1022 653T1072 470Q1072 326 1006 215T831 40T590 -24Q538 -24 495
-14T426 12L522 140Q540 134 561 130T610 126Q675 126 742 162T856 272T902 458Q902 516 879 567T801 651T654 684H630L656 834H680Q796 834 872 898T948 1094Q948 1175 901 1224T760 1274Q666 1274 587 1200T478 958L252 -320L72 -406Z" />
<glyph unicode="&#xe0;" horiz-adv-x="1032" d="M452 -24Q316 -24 234 56T152 272Q152 388 205 475T355 610T580 658Q649 658 713 640T828 586L846 684Q866 786 825 842T690 898Q620 898 532 869T366 790L344 932Q436 988 529 1017T708 1046Q817 1046 891 1001T996
874T1008 682L888 0H726L740 84Q685 33 609 5T452 -24ZM488 124Q559 124 635 160T772 258L802 436Q751 472 693 492T578 512Q497 512 438 485T347 407T314 288Q314 213 361 169T488 124ZM666 1152L376 1464H610L828 1152H666Z" />
<glyph unicode="&#xe1;" horiz-adv-x="1032" d="M452 -24Q316 -24 234 56T152 272Q152 388 205 475T355 610T580 658Q649 658 713 640T828 586L846 684Q866 786 825 842T690 898Q620 898 532 869T366 790L344 932Q436 988 529 1017T708 1046Q817 1046 891 1001T996
874T1008 682L888 0H726L740 84Q685 33 609 5T452 -24ZM488 124Q559 124 635 160T772 258L802 436Q751 472 693 492T578 512Q497 512 438 485T347 407T314 288Q314 213 361 169T488 124ZM610 1152L938 1464H1172L774 1152H610Z" />
<glyph unicode="&#xe2;" horiz-adv-x="1032" d="M452 -24Q316 -24 234 56T152 272Q152 388 205 475T355 610T580 658Q649 658 713 640T828 586L846 684Q866 786 825 842T690 898Q620 898 532 869T366 790L344 932Q436 988 529 1017T708 1046Q817 1046 891 1001T996
874T1008 682L888 0H726L740 84Q685 33 609 5T452 -24ZM488 124Q559 124 635 160T772 258L802 436Q751 472 693 492T578 512Q497 512 438 485T347 407T314 288Q314 213 361 169T488 124ZM366 1152L690 1464H866L1084 1152H932L756 1338L516 1152H366Z" />
<glyph unicode="&#xe3;" horiz-adv-x="1032" d="M452 -24Q316 -24 234 56T152 272Q152 388 205 475T355 610T580 658Q649 658 713 640T828 586L846 684Q866 786 825 842T690 898Q620 898 532 869T366 790L344 932Q436 988 529 1017T708 1046Q817 1046 891 1001T996
874T1008 682L888 0H726L740 84Q685 33 609 5T452 -24ZM488 124Q559 124 635 160T772 258L802 436Q751 472 693 492T578 512Q497 512 438 485T347 407T314 288Q314 213 361 169T488 124ZM884 1194Q829 1194 785 1212T709 1249Q683 1264 652 1278T584 1292Q548 1292
519 1270T478 1202H394Q412 1312 468 1374T624 1436Q681 1436 723 1418T802 1379Q828 1365 858 1352T922 1338Q958 1338 988 1360T1030 1428H1114Q1095 1320 1039 1257T884 1194Z" />
<glyph unicode="&#xe4;" horiz-adv-x="1032" d="M452 -24Q316 -24 234 56T152 272Q152 388 205 475T355 610T580 658Q649 658 713 640T828 586L846 684Q866 786 825 842T690 898Q620 898 532 869T366 790L344 932Q436 988 529 1017T708 1046Q817 1046 891 1001T996
874T1008 682L888 0H726L740 84Q685 33 609 5T452 -24ZM488 124Q559 124 635 160T772 258L802 436Q751 472 693 492T578 512Q497 512 438 485T347 407T314 288Q314 213 361 169T488 124ZM904 1210Q865 1210 840 1236T814 1300Q814 1353 853 1388T938 1424Q977 1424
1001 1398T1026 1334Q1026 1300 1009 1272T963 1227T904 1210ZM572 1210Q533 1210 509 1236T484 1300Q484 1334 501 1362T547 1407T606 1424Q647 1424 670 1398T694 1334Q694 1283 657 1247T572 1210Z" />
<glyph unicode="&#xe5;" horiz-adv-x="1032" d="M452 -24Q316 -24 234 56T152 272Q152 388 205 475T355 610T580 658Q649 658 713 640T828 586L846 684Q866 786 825 842T690 898Q620 898 532 869T366 790L344 932Q436 988 529 1017T708 1046Q817 1046 891 1001T996
874T1008 682L888 0H726L740 84Q685 33 609 5T452 -24ZM488 124Q559 124 635 160T772 258L802 436Q751 472 693 492T578 512Q497 512 438 485T347 407T314 288Q314 213 361 169T488 124ZM718 1112Q636 1112 582 1171T528 1312Q528 1386 567 1446T669 1542T802 1578Q883
1578 936 1522T990 1382Q990 1309 951 1248T849 1149T718 1112ZM740 1236Q790 1236 826 1273T862 1368Q862 1409 840 1432T780 1456Q734 1456 696 1422T658 1328Q658 1289 681 1263T740 1236Z" />
<glyph unicode="&#xe6;" horiz-adv-x="1645" d="M444 -24Q359 -24 293 11T190 112T152 272Q152 405 212 491T369 618T580 660Q642 660 704 643T818 590L832 670Q850 771 819 834T682 898Q600 898 513 865T362 790L340 932Q408 974 502 1010T700 1046Q766 1046
819 1025T910 967T966 882Q1037 971 1130 1008T1312 1046Q1426 1046 1505 1002T1626 873T1668 664Q1668 594 1655 536T1630 444H964Q960 358 981 287T1053 173T1186 130Q1242 130 1302 151T1420 218L1500 98Q1436 46 1352 11T1166 -24Q1052 -24 967 32T842 188Q754
74 649 25T444 -24ZM486 124Q578 124 661 181T798 308Q794 332 793 369T794 434Q758 463 699 487T574 512Q505 512 445 489T349 417T312 288Q312 218 356 171T486 124ZM988 592H1494Q1510 675 1496 743T1433 853T1302 894Q1225 894 1162 858T1054 755T988 592Z"
/>
<glyph unicode="&#xe7;" horiz-adv-x="956" d="M524 -24Q365 -24 271 91T176 400Q176 593 239 738T415 965T678 1046Q800 1046 886 984T1000 810L838 752Q823 818 777 854T660 890Q568 890 498 829T388 658T348 406Q348 276 397 205T536 134Q614 134 673 173T770
288L912 232Q857 109 756 43T524 -24ZM426 -474Q357 -474 316 -450T252 -396L352 -334Q361 -346 378 -356T426 -366Q471 -366 504 -338T538 -264Q538 -225 512 -203T442 -180Q420 -180 403 -183T368 -196L342 -154L486 2H584L502 -106Q601 -106 641 -152T682 -264Q682
-357 610 -415T426 -474Z" />
<glyph unicode="&#xe8;" horiz-adv-x="1031" d="M551 -24Q434 -24 350 31T221 184T175 406Q175 540 213 656T320 859T486 996T697 1046Q804 1046 884 1005T1008 879T1053 660Q1053 597 1042 544T1015 444H349Q349 348 371 278T443 169T571 130Q627 130 687 151T805
218L885 98Q816 43 733 10T551 -24ZM373 592H879Q895 680 880 748T816 855T687 894Q598 894 535 852T431 740T373 592ZM655 1152L365 1464H599L817 1152H655Z" />
<glyph unicode="&#xe9;" horiz-adv-x="1031" d="M551 -24Q434 -24 350 31T221 184T175 406Q175 540 213 656T320 859T486 996T697 1046Q804 1046 884 1005T1008 879T1053 660Q1053 597 1042 544T1015 444H349Q349 348 371 278T443 169T571 130Q627 130 687 151T805
218L885 98Q816 43 733 10T551 -24ZM373 592H879Q895 680 880 748T816 855T687 894Q598 894 535 852T431 740T373 592ZM599 1152L927 1464H1161L763 1152H599Z" />
<glyph unicode="&#xea;" horiz-adv-x="1031" d="M551 -24Q434 -24 350 31T221 184T175 406Q175 540 213 656T320 859T486 996T697 1046Q804 1046 884 1005T1008 879T1053 660Q1053 597 1042 544T1015 444H349Q349 348 371 278T443 169T571 130Q627 130 687 151T805
218L885 98Q816 43 733 10T551 -24ZM373 592H879Q895 680 880 748T816 855T687 894Q598 894 535 852T431 740T373 592ZM355 1152L679 1464H855L1073 1152H921L745 1338L505 1152H355Z" />
<glyph unicode="&#xeb;" horiz-adv-x="1031" d="M551 -24Q434 -24 350 31T221 184T175 406Q175 540 213 656T320 859T486 996T697 1046Q804 1046 884 1005T1008 879T1053 660Q1053 597 1042 544T1015 444H349Q349 348 371 278T443 169T571 130Q627 130 687 151T805
218L885 98Q816 43 733 10T551 -24ZM373 592H879Q895 680 880 748T816 855T687 894Q598 894 535 852T431 740T373 592ZM893 1210Q854 1210 829 1236T803 1300Q803 1353 842 1388T927 1424Q966 1424 990 1398T1015 1334Q1015 1300 998 1272T952 1227T893 1210ZM561
1210Q522 1210 498 1236T473 1300Q473 1334 490 1362T536 1407T595 1424Q636 1424 659 1398T683 1334Q683 1283 646 1247T561 1210Z" />
<glyph unicode="&#xec;" horiz-adv-x="492" d="M162 0L342 1022H506L326 0H162ZM390 1152L100 1464H334L552 1152H390Z" />
<glyph unicode="&#xed;" horiz-adv-x="492" d="M162 0L342 1022H506L326 0H162ZM334 1152L662 1464H896L498 1152H334Z" />
<glyph unicode="&#xee;" horiz-adv-x="492" d="M162 0L342 1022H506L326 0H162ZM346 1152L670 1464H846L1064 1152H912L736 1338L496 1152H346Z" />
<glyph unicode="&#xef;" horiz-adv-x="492" d="M162 0L342 1022H506L326 0H162ZM884 1210Q845 1210 820 1236T794 1300Q794 1353 833 1388T918 1424Q957 1424 981 1398T1006 1334Q1006 1300 989 1272T943 1227T884 1210ZM552 1210Q513 1210 489 1236T464 1300Q464
1334 481 1362T527 1407T586 1424Q627 1424 650 1398T674 1334Q674 1283 637 1247T552 1210Z" />
<glyph unicode="&#xf0;" horiz-adv-x="1053" d="M525 -24Q411 -24 330 26T206 166T163 370Q163 489 203 588T312 759T474 872T669 912Q741 912 789 892T868 839T915 766Q915 870 885 980T779 1162L631 1026L565 1112L689 1230Q646 1256 592 1272T475 1292L501
1424Q584 1418 663 1397T805 1336L935 1458L1005 1372L889 1266Q975 1179 1022 1040T1069 722Q1069 495 1004 328T817 68T525 -24ZM549 134Q630 134 703 182T823 313T869 500Q869 614 814 685T657 756Q574 756 501 708T383 575T337 382Q337 265 392 200T549 134Z"
/>
<glyph unicode="&#xf1;" horiz-adv-x="1089" d="M161 0L341 1022H511L491 912Q545 977 616 1011T765 1046Q879 1046 949 991T1042 832T1039 578L937 0H767L875 614Q898 746 858 818T717 890Q614 890 536 814T437 612L331 0H161ZM909 1194Q854 1194 810 1212T734
1249Q708 1264 677 1278T609 1292Q573 1292 544 1270T503 1202H419Q437 1312 493 1374T649 1436Q706 1436 748 1418T827 1379Q853 1365 883 1352T947 1338Q983 1338 1013 1360T1055 1428H1139Q1120 1320 1064 1257T909 1194Z" />
<glyph unicode="&#xf2;" horiz-adv-x="1060" d="M546 -24Q371 -24 272 88T172 400Q172 585 240 731T427 961T696 1046Q866 1046 966 932T1066 626Q1066 439 998 292T813 61T546 -24ZM550 134Q649 134 727 197T851 368T896 614Q896 743 840 816T686 890Q588 890
510 827T387 656T342 410Q342 281 397 208T550 134ZM654 1152L364 1464H598L816 1152H654Z" />
<glyph unicode="&#xf3;" horiz-adv-x="1060" d="M546 -24Q371 -24 272 88T172 400Q172 585 240 731T427 961T696 1046Q866 1046 966 932T1066 626Q1066 439 998 292T813 61T546 -24ZM550 134Q649 134 727 197T851 368T896 614Q896 743 840 816T686 890Q588 890
510 827T387 656T342 410Q342 281 397 208T550 134ZM598 1152L926 1464H1160L762 1152H598Z" />
<glyph unicode="&#xf4;" horiz-adv-x="1060" d="M546 -24Q371 -24 272 88T172 400Q172 585 240 731T427 961T696 1046Q866 1046 966 932T1066 626Q1066 439 998 292T813 61T546 -24ZM550 134Q649 134 727 197T851 368T896 614Q896 743 840 816T686 890Q588 890
510 827T387 656T342 410Q342 281 397 208T550 134ZM354 1152L678 1464H854L1072 1152H920L744 1338L504 1152H354Z" />
<glyph unicode="&#xf5;" horiz-adv-x="1060" d="M546 -24Q371 -24 272 88T172 400Q172 585 240 731T427 961T696 1046Q866 1046 966 932T1066 626Q1066 439 998 292T813 61T546 -24ZM550 134Q649 134 727 197T851 368T896 614Q896 743 840 816T686 890Q588 890
510 827T387 656T342 410Q342 281 397 208T550 134ZM872 1194Q817 1194 773 1212T697 1249Q671 1264 640 1278T572 1292Q536 1292 507 1270T466 1202H382Q400 1312 456 1374T612 1436Q669 1436 711 1418T790 1379Q816 1365 846 1352T910 1338Q946 1338 976 1360T1018
1428H1102Q1083 1320 1027 1257T872 1194Z" />
<glyph unicode="&#xf6;" horiz-adv-x="1060" d="M546 -24Q371 -24 272 88T172 400Q172 585 240 731T427 961T696 1046Q866 1046 966 932T1066 626Q1066 439 998 292T813 61T546 -24ZM550 134Q649 134 727 197T851 368T896 614Q896 743 840 816T686 890Q588 890
510 827T387 656T342 410Q342 281 397 208T550 134ZM892 1210Q853 1210 828 1236T802 1300Q802 1353 841 1388T926 1424Q965 1424 989 1398T1014 1334Q1014 1300 997 1272T951 1227T892 1210ZM560 1210Q521 1210 497 1236T472 1300Q472 1334 489 1362T535 1407T594
1424Q635 1424 658 1398T682 1334Q682 1283 645 1247T560 1210Z" />
<glyph unicode="&#xf7;" horiz-adv-x="1260" d="M280 602V768H1208V602H280ZM740 176Q692 176 660 207T628 284Q628 331 660 362T740 394Q788 394 821 363T854 284Q854 239 821 208T740 176ZM740 974Q692 974 660 1006T628 1084Q628 1129 660 1162T740 1196Q788
1196 821 1163T854 1084Q854 1039 821 1007T740 974Z" />
<glyph unicode="&#xf8;" horiz-adv-x="1060" d="M96 -24L234 140Q203 194 188 260T172 400Q172 517 205 631T305 840T470 990T696 1046Q770 1046 826 1025T926 968L990 1046H1142L1002 880Q1066 767 1066 626Q1066 508 1033 393T935 184T772 33T546 -24Q471 -24
413 -4T310 52L248 -24H96ZM550 134Q636 134 701 176T809 289T874 444T896 614Q896 644 893 673T878 730L422 184Q445 160 476 147T550 134ZM358 290L818 838Q793 862 761 876T686 890Q601 890 537 848T430 735T364 579T342 410Q342 379 345 348T358 290Z" />
<glyph unicode="&#xf9;" horiz-adv-x="1088" d="M506 -24Q391 -24 320 28T224 180T224 426L328 1022H498L390 414Q365 276 407 205T552 134Q666 134 738 202T832 400L940 1022H1110L930 0H760L778 98Q729 37 661 7T506 -24ZM684 1152L394 1464H628L846 1152H684Z" />
<glyph unicode="&#xfa;" horiz-adv-x="1088" d="M506 -24Q391 -24 320 28T224 180T224 426L328 1022H498L390 414Q365 276 407 205T552 134Q666 134 738 202T832 400L940 1022H1110L930 0H760L778 98Q729 37 661 7T506 -24ZM628 1152L956 1464H1190L792 1152H628Z" />
<glyph unicode="&#xfb;" horiz-adv-x="1088" d="M506 -24Q391 -24 320 28T224 180T224 426L328 1022H498L390 414Q365 276 407 205T552 134Q666 134 738 202T832 400L940 1022H1110L930 0H760L778 98Q729 37 661 7T506 -24ZM384 1152L708 1464H884L1102 1152H950L774
1338L534 1152H384Z" />
<glyph unicode="&#xfc;" horiz-adv-x="1088" d="M506 -24Q391 -24 320 28T224 180T224 426L328 1022H498L390 414Q365 276 407 205T552 134Q666 134 738 202T832 400L940 1022H1110L930 0H760L778 98Q729 37 661 7T506 -24ZM922 1210Q883 1210 858 1236T832 1300Q832
1353 871 1388T956 1424Q995 1424 1019 1398T1044 1334Q1044 1300 1027 1272T981 1227T922 1210ZM590 1210Q551 1210 527 1236T502 1300Q502 1334 519 1362T565 1407T624 1424Q665 1424 688 1398T712 1334Q712 1283 675 1247T590 1210Z" />
<glyph unicode="&#xfd;" horiz-adv-x="1024" d="M212 -388L432 30L246 1022H418L534 318Q537 300 541 278T548 240Q554 252 566 275T588 318L960 1022H1142L390 -388H212ZM594 1152L922 1464H1156L758 1152H594Z" />
<glyph unicode="&#xfe;" horiz-adv-x="1087" d="M89 -407L404 1378L584 1444L493 932Q547 979 611 1012T769 1046Q870 1046 942 995T1054 851T1093 634Q1093 480 1053 359T943 152T781 21T585 -24Q488 -24 434 11T347 96L270 -338L89 -407ZM587 134Q692 134 767
194T883 363T923 612Q923 735 871 812T717 890Q645 890 577 852T461 748L377 272Q410 215 459 175T587 134Z" />
<glyph unicode="&#xff;" horiz-adv-x="1024" d="M212 -388L432 30L246 1022H418L534 318Q537 300 541 278T548 240Q554 252 566 275T588 318L960 1022H1142L390 -388H212ZM888 1210Q849 1210 824 1236T798 1300Q798 1353 837 1388T922 1424Q961 1424 985 1398T1010
1334Q1010 1300 993 1272T947 1227T888 1210ZM556 1210Q517 1210 493 1236T468 1300Q468 1334 485 1362T531 1407T590 1424Q631 1424 654 1398T678 1334Q678 1283 641 1247T556 1210Z" />
<glyph unicode="&#x2013;" horiz-adv-x="1000" d="M210 500L236 648H994L968 500H210Z" />
<glyph unicode="&#x2014;" horiz-adv-x="1154" d="M104 500L130 648H1254L1228 500H104Z" />
<glyph unicode="&#x2018;" horiz-adv-x="450" d="M386 902Q340 902 304 936T268 1038Q268 1118 303 1191T397 1324T524 1424L572 1396Q552 1380 523 1348T467 1272T428 1174Q479 1171 510 1141T542 1064Q542 992 495 947T386 902Z" />
<glyph unicode="&#x2019;" horiz-adv-x="450" d="M338 902L290 930Q310 946 339 978T395 1055T432 1152Q381 1155 352 1185T322 1264Q322 1335 368 1379T476 1424Q523 1424 558 1390T594 1288Q594 1208 559 1135T466 1002T338 902Z" />
<glyph unicode="&#x201a;" horiz-adv-x="450" d="M130 -282L82 -254Q102 -238 131 -206T186 -130T224 -32Q173 -29 143 2T112 80Q112 152 158 196T262 240Q313 240 348 206T384 104Q384 23 349 -50T257 -182T130 -282Z" />
<glyph unicode="&#x201c;" horiz-adv-x="848" d="M386 902Q340 902 304 936T268 1038Q268 1118 303 1191T397 1324T524 1424L572 1396Q552 1380 523 1348T467 1272T428 1174Q479 1171 510 1141T542 1064Q542 992 495 947T386 902ZM782 902Q736 902 700 936T664
1040Q664 1119 699 1192T793 1324T920 1424L970 1396Q949 1380 920 1348T865 1272T828 1174Q878 1171 908 1141T938 1064Q938 1015 916 979T858 922T782 902Z" />
<glyph unicode="&#x201d;" horiz-adv-x="848" d="M734 902L686 930Q706 946 735 978T791 1055T830 1152Q781 1155 750 1185T718 1264Q718 1335 765 1379T872 1424Q919 1424 954 1390T990 1288Q990 1208 955 1135T862 1002T734 902ZM338 902L290 930Q310 946 339
978T395 1055T432 1152Q381 1155 352 1185T322 1264Q322 1335 368 1379T476 1424Q523 1424 558 1390T594 1288Q594 1208 559 1135T466 1002T338 902Z" />
<glyph unicode="&#x201e;" horiz-adv-x="848" d="M526 -282L478 -254Q498 -238 527 -206T582 -130T620 -32Q571 -29 541 2T510 80Q510 152 556 196T658 240Q709 240 744 206T780 104Q780 23 746 -50T653 -182T526 -282ZM130 -282L82 -254Q102 -238 131 -206T186
-130T224 -32Q173 -29 143 2T112 80Q112 152 158 196T262 240Q313 240 348 206T384 104Q384 23 349 -50T257 -182T130 -282Z" />
<glyph unicode="&#x2022;" horiz-adv-x="840" d="M502 466Q414 466 358 525T302 666Q302 741 341 803T444 902T582 940Q641 940 686 913T758 839T784 738Q784 662 744 601T640 503T502 466Z" />
<glyph unicode="&#x2039;" horiz-adv-x="608" d="M376 0L174 512L556 1022H738L354 510L554 0H376Z" />
<glyph unicode="&#x203a;" horiz-adv-x="608" d="M52 0L436 514L236 1022H414L616 512L234 0H52Z" />
</font>
</defs>
</svg>
