<svg width="145" height="57" viewBox="0 0 145 57" xmlns="http://www.w3.org/2000/svg" xmlns:xlink="http://www.w3.org/1999/xlink"><defs><linearGradient x1="50%" y1="0%" x2="50%" y2="100%" id="b"><stop stop-color="#3BF6C0" offset=".214%"/><stop stop-color="#023C97" offset="100%"/></linearGradient><linearGradient x1="38.748%" y1="36.871%" x2="55.428%" y2="72.509%" id="c"><stop offset="0%"/><stop stop-opacity="0" offset="100%"/></linearGradient><linearGradient x1="55.254%" y1="54.694%" x2="80.536%" y2="39.235%" id="e"><stop stop-color="#FFF" offset="0%"/><stop stop-color="#FFF" stop-opacity="0" offset="100%"/></linearGradient><path d="M0,7.38311688 C8.77056277,2.46103896 16.8225108,0 24.1558442,0 C31.4891775,0 39.5411255,2.46103896 48.3116883,7.38311688 C48.3116883,21.8766234 48.3116883,29.1233766 48.3116883,29.1233766 C48.3116883,39.8593074 40.2597403,48.9848485 24.1558442,56.5 C8.05194805,48.9848485 0,39.8593074 0,29.1233766 C0,29.1233766 0,21.8766234 0,7.38311688 Z" id="a"/></defs><g fill="none" fill-rule="evenodd"><g transform="translate(66.347 20.059)" fill="#FFF" fill-rule="nonzero"><path d="M3.0078125,14.9414062 L0,14.9414062 L0,0.29296875 L3.0078125,0.29296875 L3.0078125,7.5 C3.30078125,7.0703125 3.58072917,6.67317708 3.84765625,6.30859375 C4.11458333,5.94401042 4.34244792,5.64453125 4.53125,5.41015625 L8.59375,0.29296875 L12.1386719,0.29296875 L6.76757812,7.05078125 L13.1738281,14.9414062 L9.27734375,14.9414062 L4.84375,9.46289062 L3.0078125,11.7773438 L3.0078125,14.9414062 Z"/><polygon points="14.4238281 14.9414062 14.4238281 0.29296875 23.8769531 0.29296875 23.8769531 2.91992188 17.4316406 2.91992188 17.4316406 6.25 23.4765625 6.25 23.4765625 8.88671875 17.4316406 8.88671875 17.4316406 12.3144531 23.9746094 12.3144531 23.9746094 14.9414062"/><polygon points="33.7792969 14.9414062 30.7714844 14.9414062 30.7714844 8.68164062 25.2246094 0.29296875 28.8769531 0.29296875 32.2558594 6.03515625 35.6738281 0.29296875 39.3261719 0.29296875 33.7792969 8.69140625"/><path d="M39.9902344 13.359375 41.4160156 11.0644531C41.8652344 11.4290365 42.2998047 11.726888 42.7197266 11.9580078 43.1396484 12.1891276 43.5546875 12.3583984 43.9648438 12.4658203 44.375 12.5732422 44.7949219 12.6269531 45.2246094 12.6269531 45.7324219 12.6269531 46.171875 12.5553385 46.5429688 12.4121094 46.9140625 12.2688802 47.2021484 12.0638021 47.4072266 11.796875 47.6123047 11.5299479 47.7148438 11.2207031 47.7148438 10.8691406 47.7148438 10.4589844 47.5846354 10.1139323 47.3242188 9.83398438 47.0638021 9.55403646 46.7236328 9.30826823 46.3037109 9.09667969 45.8837891 8.88509115 45.4296875 8.68164062 44.9414062 8.48632812 44.4661458 8.29101562 43.9892578 8.07779948 43.5107422 7.84667969 43.0322266 7.6155599 42.5927734 7.34049479 42.1923828 7.02148438 41.7919922 6.70247396 41.4697266 6.31347656 41.2255859 5.85449219 40.9814453 5.39550781 40.859375 4.83723958 40.859375 4.1796875 40.859375 3.3203125 41.0758464 2.578125 41.5087891 1.953125 41.9417318 1.328125 42.5358073.846354167 43.2910156.5078125 44.046224.169270833 44.9088542 0 45.8789062 0 46.5625 0 47.273763.0911458333 48.0126953.2734375 48.7516276.455729167 49.4889323.732421875 50.2246094 1.10351562L49.0429688 3.53515625C48.5807292 3.25520833 48.0826823 3.03385417 47.5488281 2.87109375 47.014974 2.70833333 46.5136719 2.62695312 46.0449219 2.62695312 45.6217448 2.62695312 45.2522786 2.69205729 44.9365234 2.82226562 44.6207682 2.95247396 44.375 3.13313802 44.1992188 3.36425781 44.0234375 3.5953776 43.9355469 3.8671875 43.9355469 4.1796875 43.9355469 4.55078125 44.0625 4.87141927 44.3164062 5.14160156 44.5703125 5.41178385 44.9007161 5.65104167 45.3076172 5.859375 45.7145182 6.06770833 46.1523438 6.27604167 46.6210938 6.484375 47.1028646 6.69270833 47.5895182 6.92057292 48.0810547 7.16796875 48.5725911 7.41536458 49.0218099 7.70670573 49.4287109 8.04199219 49.835612 8.37727865 50.164388 8.77766927 50.4150391 9.24316406 50.6656901 9.70865885 50.7910156 10.2669271 50.7910156 10.9179688 50.7910156 11.7773438 50.563151 12.5309245 50.1074219 13.1787109 49.6516927 13.8264974 49.0169271 14.3310547 48.203125 14.6923828 47.3893229 15.0537109 46.4420573 15.234375 45.3613281 15.234375 44.3717448 15.234375 43.4244792 15.0748698 42.5195312 14.7558594 41.6145833 14.436849 40.7714844 13.9713542 39.9902344 13.359375ZM54.8828125 14.9414062 51.7285156 14.9414062 57.5683594.29296875 60.7421875.29296875 66.5722656 14.9414062 63.4179688 14.9414062 62.2167969 11.796875 56.0839844 11.796875 54.8828125 14.9414062ZM57.0703125 9.16015625 61.2402344 9.16015625 59.1503906 3.73046875 57.0703125 9.16015625ZM67.3144531 13.359375 68.7402344 11.0644531C69.1894531 11.4290365 69.6240234 11.726888 70.0439453 11.9580078 70.4638672 12.1891276 70.8789062 12.3583984 71.2890625 12.4658203 71.6992188 12.5732422 72.1191406 12.6269531 72.5488281 12.6269531 73.0566406 12.6269531 73.4960938 12.5553385 73.8671875 12.4121094 74.2382812 12.2688802 74.5263672 12.0638021 74.7314453 11.796875 74.9365234 11.5299479 75.0390625 11.2207031 75.0390625 10.8691406 75.0390625 10.4589844 74.9088542 10.1139323 74.6484375 9.83398438 74.3880208 9.55403646 74.0478516 9.30826823 73.6279297 9.09667969 73.2080078 8.88509115 72.7539062 8.68164062 72.265625 8.48632812 71.7903646 8.29101562 71.3134766 8.07779948 70.8349609 7.84667969 70.3564453 7.6155599 69.9169922 7.34049479 69.5166016 7.02148438 69.1162109 6.70247396 68.7939453 6.31347656 68.5498047 5.85449219 68.3056641 5.39550781 68.1835938 4.83723958 68.1835938 4.1796875 68.1835938 3.3203125 68.4000651 2.578125 68.8330078 1.953125 69.2659505 1.328125 69.860026.846354167 70.6152344.5078125 71.3704427.169270833 72.2330729 0 73.203125 0 73.8867188 0 74.5979818.0911458333 75.3369141.2734375 76.0758464.455729167 76.813151.732421875 77.5488281 1.10351562L76.3671875 3.53515625C75.9049479 3.25520833 75.406901 3.03385417 74.8730469 2.87109375 74.3391927 2.70833333 73.8378906 2.62695312 73.3691406 2.62695312 72.9459635 2.62695312 72.5764974 2.69205729 72.2607422 2.82226562 71.944987 2.95247396 71.6992188 3.13313802 71.5234375 3.36425781 71.3476562 3.5953776 71.2597656 3.8671875 71.2597656 4.1796875 71.2597656 4.55078125 71.3867188 4.87141927 71.640625 5.14160156 71.8945312 5.41178385 72.2249349 5.65104167 72.6318359 5.859375 73.038737 6.06770833 73.4765625 6.27604167 73.9453125 6.484375 74.4270833 6.69270833 74.913737 6.92057292 75.4052734 7.16796875 75.8968099 7.41536458 76.3460286 7.70670573 76.7529297 8.04199219 77.1598307 8.37727865 77.4886068 8.77766927 77.7392578 9.24316406 77.9899089 9.70865885 78.1152344 10.2669271 78.1152344 10.9179688 78.1152344 11.7773438 77.8873698 12.5309245 77.4316406 13.1787109 76.9759115 13.8264974 76.3411458 14.3310547 75.5273438 14.6923828 74.7135417 15.0537109 73.766276 15.234375 72.6855469 15.234375 71.6959635 15.234375 70.7486979 15.0748698 69.84375 14.7558594 68.9388021 14.436849 68.0957031 13.9713542 67.3144531 13.359375Z"/></g><mask id="d" fill="#fff"><use xlink:href="#a"/></mask><use fill="url(#b)" xlink:href="#a"/><polygon fill="url(#c)" opacity=".162" mask="url(#d)" points="-4.84415584 47 28.1558442 23 28.1558442 58 17.1558442 62"/><polygon fill="url(#e)" opacity=".291" mask="url(#d)" points="10.1558442 12 -6.84415584 -2.83939539e-14 28.1558442 0 28.1558442 22 24.1558442 22"/><path d="M-2.84415584,22 L10.1558442,22 L10.1558442,26 L-2.84415584,26 L-2.84415584,22 Z M32.1558442,12 L32.1558442,22 L40.1558442,22 L40.1558442,26 L32.1558442,26 L32.1558442,36 L28.1558442,36 L28.1558442,26 L24.3218442,26 L10.1558442,36 L10.1558442,12 L24.3228442,22 L28.1558442,22 L28.1558442,12 L32.1558442,12 Z" fill="#FFF" mask="url(#d)"/></g></svg>